<svg width="41" height="79" viewBox="0 0 41 79" fill="none" xmlns="http://www.w3.org/2000/svg">
<path d="M21.1201 0C19.6272 0.231826 18.1691 0.372757 17.4945 0.676133C17.0988 0.854088 17.0571 0.931975 17.0132 1.07641C16.9696 1.22034 16.9292 1.71902 17.3122 2.72421L17.8759 4.20406L16.47 4.71658C12.0375 6.3327 9.10105 11.1147 9.03962 15.3284C8.93192 22.676 15.2195 29.1156 18.534 35.2571C19.59 37.2138 19.2672 39.5167 18.4636 41.7983C17.66 44.0792 16.3281 46.5306 14.8325 49.1967C11.8413 54.5291 8.19424 60.701 6.7011 67.0127C5.66864 71.3768 7.22213 74.256 9.65613 76.2994C12.0903 78.343 15.54 79.2247 17.4197 78.9516C20.4004 78.5188 22.4443 76.4315 23.5956 73.8787C24.7469 71.3261 24.8144 68.3621 24.0862 66.7955C23.5972 65.7431 22.6032 64.8285 21.4669 64.2915C20.3306 63.7544 19.0843 63.637 18.3028 63.8778C15.7848 64.6534 14.9766 66.5447 14.8304 68.5802C14.7678 69.4488 14.8895 70.2852 15.0795 70.9769C15.5267 70.1542 16.0327 69.3182 16.5904 68.5902C17.1302 67.8864 17.6803 67.2493 18.5348 66.8799C18.9619 66.6953 19.5143 66.6004 20.0618 66.7623C20.6092 66.9244 21.0669 67.3234 21.3759 67.7719C21.9237 68.5674 22.0769 69.4592 22.0808 70.417C22.0845 71.3753 21.8917 72.4097 21.412 73.385C20.4523 75.3357 18.1038 76.8021 14.9644 76.1286C12.2362 75.5432 10.1988 73.6836 9.46393 71.2091C8.72904 68.7345 9.24481 65.8292 10.8814 63.0668C14.4184 57.096 20.5106 53.5207 25.377 49.5928C27.8103 47.6288 29.9363 45.5981 31.3703 43.2735C32.8044 40.9485 33.594 38.3563 33.3851 34.9511C33.1731 31.494 30.9355 28.1822 27.6905 25.2167C24.4455 22.2508 20.2882 19.7029 16.6943 17.7169C16.2025 17.4442 15.8292 16.8845 15.705 16.3915C15.5812 15.8983 15.6203 15.4758 15.6966 15.1027C15.8489 14.3567 16.1706 13.7446 16.6062 13.2008C17.0418 12.6567 17.609 12.03 18.6721 12.0955C19.2035 12.1282 19.7692 12.4674 20.0919 12.8966C20.3983 13.304 20.5499 13.7475 20.6493 14.2241C20.6547 14.2168 20.7282 14.3092 21.0482 14.447C21.5121 14.6471 22.3292 14.8255 23.3301 14.8889C25.3317 15.0147 28.075 14.7221 30.7489 14.0046C33.6798 13.2183 36.6872 14.0001 39.179 14.8139C39.702 14.9847 40.0729 15.1187 40.5443 15.2852C40.5319 15.2338 40.5056 15.1841 40.4948 15.1328C40.1639 13.5558 40.3957 12.0181 40.7021 10.7014C40.795 10.3016 40.8983 9.96703 41 9.60945C38.9945 10.3028 36.6572 10.6543 34.3552 10.3807C31.4228 10.0321 28.4659 8.4615 27.0455 5.21543C25.3763 4.80748 24.1665 3.85566 23.3017 2.83479C22.4661 1.84794 21.8564 0.864596 21.1201 0ZM22.8935 6.29067C24.1245 6.29067 25.1223 7.33805 25.1223 8.63061C25.1223 9.92284 24.1245 10.9706 22.8937 10.9706C21.6628 10.9706 20.665 9.92284 20.665 8.63061C20.665 7.33805 21.6627 6.29067 22.8935 6.29067ZM15.6994 20.6946C22.743 27.3742 26.5 32.9747 27.1325 38.1945C27.4488 40.8046 26.9011 43.29 25.6191 45.4461C24.3368 47.602 22.3706 49.4466 19.8508 51.0992L18.4028 48.5346C20.6822 47.0402 22.3052 45.4551 23.2742 43.8264C24.2429 42.1972 24.6081 40.5424 24.3706 38.5836C23.8958 34.6662 20.6802 29.4166 13.8596 22.9485L15.6994 20.6946ZM0 23.9919C1.78886 29.9038 6.08707 35.0261 11.2861 39.626C11.5535 38.6214 11.8821 37.6224 12.3708 36.6906C12.8799 35.7199 13.6066 34.826 14.537 34.1822C12.9683 31.8266 11.0171 29.2101 9.39724 26.2868C9.25013 26.286 9.10307 26.281 8.95621 26.2718C7.68234 26.1892 6.08723 25.8862 4.4429 25.4629C2.88833 25.0629 1.32679 24.5517 0 23.9919Z" fill="url(#paint0_linear_42_349)"/>
<defs>
<linearGradient id="paint0_linear_42_349" x1="20.5" y1="79" x2="20.5" y2="0" gradientUnits="userSpaceOnUse">
<stop stop-color="#FF8C2F"/>
<stop offset="1" stop-color="#FFC12F"/>
</linearGradient>
</defs>
</svg>
