<svg width="1024" height="2176" viewBox="0 0 1024 2176" fill="none" xmlns="http://www.w3.org/2000/svg">
<g clip-path="url(#clip0_1_2)">
<rect width="1024" height="2176" fill="white"/>
<path d="M1051.5 770.289C991.9 405.889 243 100.456 -124 -6.71059L-264 -132.211C-46.6667 -163.877 440.4 -218.911 650 -185.711C859.6 -152.511 1080.67 340.123 1165 582.289V1145.29C1127.17 1237.46 1021.8 1452.79 903 1576.79C784.2 1700.79 853.5 1948.12 903 2056.29L1165 2190.29H590C587.167 2074.12 604.1 1803.69 694.5 1651.29C807.5 1460.79 1126 1225.79 1051.5 770.289Z" fill="#CEF3EA" fill-opacity="0.32"/>
<path d="M221.862 348.057C128.329 250.91 -449.895 305.996 -727.315 345.682L-773.957 796.314C-613.026 713.045 -413.566 560.451 -98.7096 552.788C216.147 545.124 410.504 617.508 496.865 916.661C565.953 1155.98 90.869 1536.19 -155.309 1696.37L-77.9621 2351.03C383.384 2299.98 1310.18 2195.32 1326.58 2185.09C1342.99 2174.86 1207.75 2138.33 1138.08 2121.34L238.007 2102.8C120.749 2084.53 -99.0152 2008.3 -40.006 1849.61C33.7556 1651.24 544.41 1387.26 632.214 1080.48C720.018 773.704 338.778 469.49 221.862 348.057Z" fill="#CEF3EA" fill-opacity="0.61"/>
<path d="M611.5 1014.5C591.1 767.3 200.667 537.167 8 453L-158 -8H381.5C526.5 124 839.6 426.8 932 582C1047.5 776 1187.5 1096 1114.5 1348.5C1041.5 1601 536 1559.5 485 1877C444.2 2131 801.333 2256.17 985 2287L395.5 2236.5C228.833 2127.83 -78.1 1854.3 27.5 1629.5C159.5 1348.5 637 1323.5 611.5 1014.5Z" fill="url(#paint0_linear_1_2)" fill-opacity="0.17"/>
</g>
<defs>
<linearGradient id="paint0_linear_1_2" x1="488.336" y1="-8" x2="488.336" y2="2287" gradientUnits="userSpaceOnUse">
<stop stop-color="#CEF3EA" stop-opacity="0.88"/>
<stop offset="0.942308" stop-color="#3183FF"/>
</linearGradient>
<clipPath id="clip0_1_2">
<rect width="1024" height="2176" fill="white"/>
</clipPath>
</defs>
</svg>
