<svg width="16" height="16" viewBox="0 0 16 16" fill="none" xmlns="http://www.w3.org/2000/svg">
<path d="M13.3333 2.66675H2.66667C1.93334 2.66675 1.34 3.26675 1.34 4.00008L1.33334 12.0001C1.33334 12.7334 1.93334 13.3334 2.66667 13.3334H13.3333C14.0667 13.3334 14.6667 12.7334 14.6667 12.0001V4.00008C14.6667 3.26675 14.0667 2.66675 13.3333 2.66675ZM13.0667 5.50008L8.35334 8.44675C8.14 8.58008 7.86 8.58008 7.64667 8.44675L2.93334 5.50008C2.86649 5.46256 2.80795 5.41186 2.76126 5.35105C2.71457 5.29025 2.68071 5.2206 2.66172 5.14633C2.64273 5.07206 2.639 4.9947 2.65077 4.91895C2.66254 4.8432 2.68956 4.77062 2.73019 4.70562C2.77082 4.64061 2.82422 4.58452 2.88715 4.54074C2.95009 4.49697 3.02125 4.46642 3.09633 4.45095C3.17142 4.43547 3.24886 4.43539 3.32397 4.45071C3.39909 4.46603 3.47031 4.49644 3.53334 4.54008L8 7.33342L12.4667 4.54008C12.5297 4.49644 12.6009 4.46603 12.676 4.45071C12.7511 4.43539 12.8286 4.43547 12.9037 4.45095C12.9788 4.46642 13.0499 4.49697 13.1129 4.54074C13.1758 4.58452 13.2292 4.64061 13.2698 4.70562C13.3104 4.77062 13.3375 4.8432 13.3492 4.91895C13.361 4.9947 13.3573 5.07206 13.3383 5.14633C13.3193 5.2206 13.2854 5.29025 13.2387 5.35105C13.1921 5.41186 13.1335 5.46256 13.0667 5.50008Z" fill="#1C6073"/>
</svg>
