<svg width="16" height="16" viewBox="0 0 16 16" fill="none" xmlns="http://www.w3.org/2000/svg">
<path d="M8.17375 3.16505C8.12722 3.12054 8.06532 3.0957 8.00093 3.0957C7.93655 3.0957 7.87465 3.12054 7.82812 3.16505L2.075 8.66099C2.05056 8.68436 2.03113 8.71244 2.01786 8.74354C2.00459 8.77464 1.99777 8.80811 1.99781 8.84192L1.99687 14C1.99687 14.2653 2.10223 14.5196 2.28977 14.7072C2.4773 14.8947 2.73166 15 2.99687 15H6C6.13261 15 6.25978 14.9474 6.35355 14.8536C6.44732 14.7598 6.5 14.6327 6.5 14.5V10.25C6.5 10.1837 6.52634 10.1202 6.57322 10.0733C6.6201 10.0264 6.68369 10 6.75 10H9.25C9.3163 10 9.37989 10.0264 9.42677 10.0733C9.47366 10.1202 9.5 10.1837 9.5 10.25V14.5C9.5 14.6327 9.55268 14.7598 9.64644 14.8536C9.74021 14.9474 9.86739 15 10 15H13.0019C13.2671 15 13.5214 14.8947 13.709 14.7072C13.8965 14.5196 14.0019 14.2653 14.0019 14V8.84192C14.0019 8.80811 13.9951 8.77464 13.9818 8.74354C13.9686 8.71244 13.9491 8.68436 13.9247 8.66099L8.17375 3.16505Z" fill="#1C6073"/>
<path d="M15.3409 7.62969L13.0034 5.39344V2C13.0034 1.86739 12.9508 1.74021 12.857 1.64645C12.7632 1.55268 12.636 1.5 12.5034 1.5H11.0034C10.8708 1.5 10.7436 1.55268 10.6499 1.64645C10.5561 1.74021 10.5034 1.86739 10.5034 2V3L8.69343 1.26937C8.52406 1.09812 8.27218 1 8 1C7.72875 1 7.4775 1.09813 7.30812 1.26969L0.661247 7.62906C0.466872 7.81656 0.442497 8.125 0.619372 8.32812C0.663788 8.3794 0.718172 8.42109 0.779215 8.45068C0.840258 8.48027 0.906683 8.49712 0.974447 8.50022C1.04221 8.50332 1.1099 8.4926 1.17339 8.46871C1.23687 8.44481 1.29484 8.40825 1.34375 8.36125L7.82812 2.165C7.87465 2.12049 7.93655 2.09565 8.00093 2.09565C8.06532 2.09565 8.12722 2.12049 8.17375 2.165L14.6587 8.36125C14.7543 8.45286 14.8822 8.50285 15.0146 8.50028C15.1469 8.4977 15.2728 8.44276 15.3647 8.3475C15.5566 8.14875 15.5406 7.82062 15.3409 7.62969Z" fill="#1C6073"/>
</svg>
