<svg width="16" height="16" viewBox="0 0 16 16" fill="none" xmlns="http://www.w3.org/2000/svg">
<path d="M6 2C6.11952 1.99997 6.23686 2.03207 6.33972 2.09294C6.44258 2.15381 6.52718 2.24121 6.58467 2.346L6.61867 2.41933L7.952 5.75267C8.0057 5.88677 8.01439 6.03469 7.97676 6.17417C7.93913 6.31364 7.85721 6.43711 7.74334 6.526L7.67667 6.57133L6.56067 7.24067L6.60267 7.30933C7.13384 8.15266 7.84734 8.86616 8.69067 9.39733L8.75867 9.43867L9.42867 8.324C9.50292 8.20006 9.61543 8.10359 9.74925 8.04912C9.88307 7.99465 10.031 7.98514 10.1707 8.022L10.2473 8.048L13.5807 9.38133C13.6917 9.42561 13.7887 9.49891 13.8617 9.59356C13.9346 9.68821 13.9808 9.80072 13.9953 9.91933L14 10V12.6667C14 13.7713 13.1047 14.6667 11.96 14.6653C6.24067 14.318 1.68134 9.75867 1.33334 4C1.33331 3.48986 1.52822 2.99899 1.87819 2.62783C2.22816 2.25666 2.70674 2.03326 3.216 2.00333L3.33334 2H6Z" fill="#1C6073"/>
</svg>
