<svg width="944" height="169" viewBox="0 0 944 169" fill="none" xmlns="http://www.w3.org/2000/svg">
<g clip-path="url(#clip0_155_595)">
<path d="M21.7269 -11.8815C72.3033 -27.8672 130.4 -23.8454 182.705 -22.7347C201.164 -22.3531 219.598 -22.302 238.06 -22.4854C240.68 -22.5111 243.3 -22.5369 245.999 -22.5634C251.32 -22.6171 256.642 -22.6716 261.963 -22.7268C311.954 -23.2069 361.893 -22.6542 411.875 -21.7522C454.836 -21.001 497.72 -21.1313 540.68 -21.9066C590.477 -22.8048 640.229 -23.1608 690.033 -22.6439C695.335 -22.5903 700.638 -22.5375 705.94 -22.4854C708.55 -22.4595 711.159 -22.4336 713.847 -22.4068C732.301 -22.2613 750.726 -22.5103 769.175 -22.902C898.903 -25.4263 898.903 -25.4263 936.09 -5.73478C945.297 0.188905 950.783 7.63814 955.941 17.1945C968.485 43.7625 971.169 72.6231 969.1 101.648C966.91 122.4 961.735 142.333 950.527 160.113C944.087 168.777 936.942 173.792 927.104 178.104C876.301 197.134 814.489 191.896 761.295 190.767C742.836 190.385 724.402 190.334 705.94 190.517C703.32 190.543 700.7 190.569 698.001 190.595C692.68 190.649 687.358 190.703 682.037 190.759C632.046 191.239 582.107 190.686 532.125 189.784C489.164 189.033 446.28 189.163 403.32 189.938C353.523 190.837 303.771 191.193 253.967 190.676C248.665 190.622 243.362 190.569 238.06 190.517C235.451 190.491 232.841 190.465 230.153 190.439C211.699 190.293 193.274 190.542 174.825 190.934C45.097 193.458 45.097 193.458 7.90977 173.767C-1.29706 167.843 -6.78301 160.394 -11.9412 150.837C-24.4846 124.269 -27.1689 95.4088 -25.1 66.3837C-22.9095 45.6322 -17.7352 25.6993 -6.52694 7.91914C1.03443 -2.25408 9.98343 -7.48241 21.7269 -11.8815Z" fill="#5184C3"/>
<path d="M757.088 18.8799C763.224 19.1159 763.224 19.1159 768.416 20.7679C768.416 22.014 768.416 23.26 768.416 24.5439C771.181 24.8165 773.945 25.089 776.794 25.3699C779.637 25.7203 782.479 26.0708 785.408 26.4319C786.031 28.301 786.654 30.1701 787.296 32.0959C796.564 31.7394 802.19 29.2872 809.952 24.5439C811.821 25.1669 813.69 25.79 815.616 26.4319C814.37 26.4319 813.124 26.4319 811.84 26.4319C813.429 32.143 813.429 32.143 815.616 37.7599C816.239 36.5138 816.862 35.2677 817.504 33.9839C823.404 34.4559 823.404 34.4559 828.832 35.8719C828.209 37.118 827.586 38.364 826.944 39.6479C828.112 40.8161 829.28 41.9843 830.484 43.1879C831.808 44.5118 833.132 45.8358 834.496 47.1999C835.119 49.692 835.742 52.1842 836.384 54.7519C840.122 56.621 840.122 56.621 843.936 58.5279C843.936 59.774 843.936 61.02 843.936 62.3039C846.428 62.9269 848.92 63.55 851.488 64.1919C851.488 65.438 851.488 66.684 851.488 67.9679C850.242 67.4617 848.996 66.9554 847.712 66.4339C839.148 63.0439 830.45 62.3039 821.28 62.3039C821.46 67.9496 821.46 67.9496 823.168 73.6319C824.414 74.2549 825.66 74.878 826.944 75.5199C826.944 74.2738 826.944 73.0277 826.944 71.7439C831.31 70.4459 831.31 70.4459 836.384 69.8559C838.253 70.4789 840.122 71.102 842.048 71.7439C842.671 73.613 843.294 75.4821 843.936 77.4079C842.067 77.4079 840.198 77.4079 838.272 77.4079C836.939 83.0548 835.679 88.7197 834.496 94.3999C833.25 94.3999 832.004 94.3999 830.72 94.3999C830.72 96.892 830.72 99.3842 830.72 101.952C827.605 101.952 824.49 101.952 821.28 101.952C817.307 96.9482 815.691 92.8235 814.2 86.6119C813.032 83.925 813.032 83.925 811.84 81.1839C807.479 79.1948 803.074 77.2999 798.624 75.5199C798.001 73.0277 797.378 70.5356 796.736 67.9679C795.49 67.9679 794.244 67.9679 792.96 67.9679C792.96 66.7218 792.96 65.4757 792.96 64.1919C791.714 64.1919 790.468 64.1919 789.184 64.1919C789.496 65.9831 789.807 67.7744 790.128 69.6199C790.44 71.5669 790.751 73.5139 791.072 75.5199C789.826 76.766 788.58 78.012 787.296 79.2959C787.919 81.165 788.542 83.0341 789.184 84.9599C786.692 85.5829 784.2 86.206 781.632 86.8479C779.763 85.6018 777.894 84.3557 775.968 83.0719C774.635 86.8221 773.383 90.6021 772.192 94.3999C770.323 95.0229 768.454 95.646 766.528 96.2879C767.094 101.664 768.594 106.261 770.304 111.392C774.042 109.523 774.042 109.523 777.856 107.616C785.611 104.646 790.075 103.84 798.624 103.84C799.096 98.1759 799.096 98.1759 798.624 92.5119C799.87 92.5119 801.116 92.5119 802.4 92.5119C804.269 94.381 806.138 96.2501 808.064 98.1759C808.064 101.291 808.064 104.406 808.064 107.616C810.556 108.239 813.048 108.862 815.616 109.504C815.616 112.619 815.616 115.734 815.616 118.944C817.485 119.567 819.354 120.19 821.28 120.832C819.628 125.67 819.628 125.67 815.616 130.272C808.89 131.57 808.89 131.57 802.4 130.272C800.04 124.608 800.04 124.608 798.624 118.944C796.755 118.944 794.886 118.944 792.96 118.944C793.583 120.813 794.206 122.682 794.848 124.608C794.225 125.231 793.602 125.854 792.96 126.496C794.167 127.703 795.374 128.91 796.618 130.154C797.903 131.439 799.188 132.724 800.512 134.048C800.512 135.294 800.512 136.54 800.512 137.824C801.758 137.824 803.004 137.824 804.288 137.824C805.344 143.524 806.176 149.01 806.176 154.816C806.799 157.308 807.422 159.8 808.064 162.368C809.31 162.368 810.556 162.368 811.84 162.368C811.84 164.237 811.84 166.106 811.84 168.032C807.742 168.75 807.742 168.75 801.877 168.764C799.669 168.783 797.461 168.801 795.186 168.82C792.732 168.812 790.278 168.803 787.75 168.795C785.19 168.808 782.63 168.821 779.993 168.834C771.473 168.869 762.953 168.861 754.433 168.851C748.549 168.859 742.665 168.869 736.782 168.88C724.427 168.897 712.072 168.893 699.717 168.874C685.406 168.852 671.095 168.879 656.784 168.93C643.052 168.976 629.321 168.981 615.589 168.969C609.729 168.969 603.869 168.98 598.009 169.003C589.839 169.031 581.669 169.012 573.498 168.979C571.045 168.997 568.591 169.016 566.062 169.034C563.854 169.016 561.646 168.997 559.371 168.978C556.468 168.978 556.468 168.978 553.506 168.977C552.154 168.665 550.801 168.353 549.408 168.032C549.408 165.54 549.408 163.048 549.408 160.48C551.277 159.857 553.146 159.234 555.072 158.592C556.941 159.526 556.941 159.526 558.848 160.48C557.741 154.784 556.479 149.117 555.072 143.488C553.826 143.488 552.58 143.488 551.296 143.488C550.441 129.984 550.441 129.984 551.296 124.608C553.165 123.985 555.034 123.362 556.96 122.72C556.96 121.474 556.96 120.228 556.96 118.944C559.452 118.944 561.944 118.944 564.512 118.944C564.512 117.698 564.512 116.452 564.512 115.168C558.134 114.747 558.134 114.747 551.296 117.056C547.035 123.724 547.035 123.724 543.744 130.272C541.875 129.649 540.006 129.026 538.08 128.384C536.428 123.664 536.428 123.664 536.192 118.944C538.061 118.321 539.93 117.698 541.856 117.056C540.61 114.564 539.364 112.072 538.08 109.504C538.703 111.373 539.326 113.242 539.968 115.168C530.076 120.114 521.821 121.197 510.822 121.54C508.761 121.632 506.699 121.725 504.575 121.82C503.171 121.494 501.767 121.168 500.32 120.832C501.2 118.736 501.2 118.736 502.097 116.599C502.757 114.88 503.416 113.162 504.096 111.392C500.618 106.795 500.618 106.795 495.364 102.896C488.599 97.3908 482.575 92.2387 477.664 84.9599C479.533 84.0253 479.533 84.0253 481.44 83.0719C479.938 78.4497 479.938 78.4497 477.664 73.6319C477.041 71.7628 476.418 69.8936 475.776 67.9679C476.399 66.0988 477.022 64.2296 477.664 62.3039C475.795 61.0578 473.926 59.8117 472 58.5279C478.884 58.3759 485.765 58.2631 492.65 58.1739C494.615 58.1264 496.581 58.079 498.605 58.0301C503.585 57.9814 508.565 58.2313 513.536 58.5279C514.159 60.397 514.782 62.2661 515.424 64.1919C517.293 64.8149 519.162 65.438 521.088 66.0799C519.842 66.7029 518.596 67.326 517.312 67.9679C519.96 69.2529 522.608 70.5379 525.336 71.8619C527.57 72.9461 527.57 72.9461 529.85 74.0523C532.054 74.7787 532.054 74.7787 534.304 75.5199C536.796 74.8968 539.288 74.2738 541.856 73.6319C545.039 74.7963 548.189 76.0537 551.296 77.4079C553.165 77.4079 555.034 77.4079 556.96 77.4079C557.583 74.9157 558.206 72.4236 558.848 69.8559C560.094 69.8559 561.34 69.8559 562.624 69.8559C562.624 68.6098 562.624 67.3637 562.624 66.0799C568.996 62.0679 568.996 62.0679 575.84 58.5279C577.086 58.5279 578.332 58.5279 579.616 58.5279C579.616 56.6588 579.616 54.7896 579.616 52.8639C583.694 52.2444 583.694 52.2444 589.174 52.3919C591.082 52.4406 592.99 52.4892 594.956 52.5394C601.24 52.9151 607.372 53.846 613.6 54.7519C624.428 55.2097 635.042 55.0382 645.696 52.8639C647.565 51.6178 649.434 50.3717 651.36 49.0879C647.622 48.4648 643.884 47.8418 640.032 47.1999C642.524 46.5768 645.016 45.9538 647.584 45.3119C647.584 44.0658 647.584 42.8197 647.584 41.5359C627.48 39.0412 598.938 40.7592 579.616 47.1999C562.31 49.2983 544.136 50.5065 526.752 49.0879C526.752 47.8418 526.752 46.5957 526.752 45.3119C520.907 43.6681 515.23 43.2429 509.17 42.7159C506.873 42.3265 504.575 41.9371 502.208 41.5359C502.208 39.6668 502.208 37.7976 502.208 35.8719C511.711 31.1201 525.149 32.5885 535.602 31.9779C538.319 31.8063 541.037 31.6347 543.836 31.4579C561.383 30.4072 579.03 29.3791 596.608 30.2079C597.543 31.1424 597.543 31.1424 598.496 32.0959C606.388 32.5862 614.308 32.4551 622.214 32.4499C624.532 32.4484 626.849 32.4468 629.237 32.4453C651.123 32.2982 671.81 30.7943 692.896 24.5439C704.238 22.1446 715.501 22.3738 726.88 24.5439C728.749 26.413 728.749 26.413 730.656 28.3199C737.385 28.1473 743.062 27.9502 749.536 26.4319C752.124 23.9875 754.659 21.4825 757.088 18.8799Z" fill="#6190C7"/>
<path d="M787.296 -2.62185e-05C812.621 -6.74643 839.587 -8.83545 865.648 -10.738C868.411 -10.9459 868.411 -10.9459 871.229 -11.158C893.549 -12.6594 915.446 -12.6803 936.638 -4.83699C943.937 -0.041602 947.7 4.01801 951.631 11.8138C965.174 44.9164 964.135 84.4596 960.061 119.421C957.532 136.942 953.812 153.112 944 168.032C934.491 175.29 925.718 177.722 913.962 179.389C882.17 181.78 841.939 178.901 811.84 168.032C811.84 166.163 811.84 164.294 811.84 162.368C810.594 162.368 809.348 162.368 808.064 162.368C806.818 160.499 805.572 158.63 804.288 156.704C804.288 152.495 804.381 148.285 804.524 144.078C804.446 142.014 804.368 139.95 804.288 137.824C803.042 137.824 801.796 137.824 800.512 137.824C799.928 136.305 799.344 134.787 798.742 133.222C798.08 131.625 797.418 130.029 796.736 128.384C793.932 127.449 793.932 127.449 791.072 126.496C791.695 124.004 792.318 121.512 792.96 118.944C796.698 118.009 796.698 118.009 800.512 117.056C800.707 119.198 800.901 121.339 801.102 123.546C801.53 125.766 801.959 127.985 802.4 130.272C808.926 132.16 808.926 132.16 815.616 130.272C818.854 125.879 818.854 125.879 819.392 120.832C817.523 119.897 817.523 119.897 815.616 118.944C815.616 115.829 815.616 112.714 815.616 109.504C814.02 109.192 812.423 108.881 810.778 108.56C809.259 108.248 807.741 107.937 806.176 107.616C806.884 102.896 806.884 102.896 808.064 98.176C806.195 97.5529 804.326 96.9299 802.4 96.288C802.4 95.0419 802.4 93.7958 802.4 92.512C801.154 92.512 799.908 92.512 798.624 92.512C798.975 94.2643 799.325 96.0166 799.686 97.822C799.336 99.8079 798.985 101.794 798.624 103.84C793.401 106.034 788.317 107.176 782.768 108.294C781.147 108.694 779.526 109.093 777.856 109.504C776.61 110.75 775.364 111.996 774.08 113.28C772.211 112.657 770.342 112.034 768.416 111.392C767.17 108.9 765.924 106.408 764.64 103.84C764.994 98.766 764.994 98.766 766.528 94.4C769.332 93.4654 769.332 93.4654 772.192 92.512C772.192 89.3968 772.192 86.2816 772.192 83.072C775.93 82.1374 775.93 82.1374 779.744 81.184C780.99 82.4301 782.236 83.6761 783.52 84.96C785.389 84.0254 785.389 84.0254 787.296 83.072C786.673 81.2029 786.05 79.3337 785.408 77.408C786.654 76.1619 787.9 74.9158 789.184 73.632C789.184 70.5168 789.184 67.4016 789.184 64.192C790.43 64.192 791.676 64.192 792.96 64.192C792.96 65.4381 792.96 66.6841 792.96 67.968C794.206 67.968 795.452 67.968 796.736 67.968C797.359 70.4601 797.982 72.9523 798.624 75.52C800.688 75.9873 802.752 76.4545 804.878 76.936C808.324 78.1042 808.324 78.1042 811.84 79.296C815.961 86.1277 818.765 92.5201 821.28 100.064C825.98 102.076 825.98 102.076 830.72 101.952C830.72 99.4598 830.72 96.9677 830.72 94.4C831.966 94.4 833.212 94.4 834.496 94.4C834.418 92.6866 834.34 90.9733 834.26 89.208C834.338 87.1831 834.416 85.1582 834.496 83.072C838.272 78.824 838.272 78.824 842.048 75.52C842.048 74.2739 842.048 73.0278 842.048 71.744C834.496 71.1146 834.496 71.1146 826.944 71.744C826.944 72.9901 826.944 74.2361 826.944 75.52C825.075 74.8969 823.206 74.2739 821.28 73.632C820.346 69.8937 820.346 69.8937 819.392 66.08C820.327 64.2109 820.327 64.2109 821.28 62.304C828.006 60.652 828.006 60.652 836.384 60.416C844.88 64.074 844.88 64.074 851.488 67.968C850.865 66.7219 850.242 65.4758 849.6 64.192C847.731 63.5689 845.862 62.9459 843.936 62.304C843.936 61.0579 843.936 59.8118 843.936 58.528C841.444 57.9049 838.952 57.2819 836.384 56.64C835.138 54.7709 833.892 52.9017 832.608 50.976C832.608 48.4838 832.608 45.9917 832.608 43.424C827.996 40.9494 827.996 40.9494 823.168 39.648C825.037 38.4019 826.906 37.1558 828.832 35.872C823.287 34.4496 823.287 34.4496 817.504 33.984C816.57 36.7877 816.57 36.7877 815.616 39.648C811.84 32.096 811.84 32.096 809.952 26.432C808.706 27.2108 807.46 27.9896 806.176 28.792C798.616 33.2021 792.194 33.8526 783.52 33.984C784.143 31.4918 784.766 28.9997 785.408 26.432C782.245 26.9742 779.101 27.6238 775.968 28.32C773.476 27.0739 770.984 25.8278 768.416 24.544C768.416 23.2979 768.416 22.0518 768.416 20.768C765.924 21.391 763.432 22.0141 760.864 22.656C760.864 21.4099 760.864 20.1638 760.864 18.88C758.411 18.88 755.958 18.88 753.43 18.88C750.899 18.88 748.368 18.88 745.76 18.88C745.137 17.6339 744.514 16.3878 743.872 15.104C749.684 14.6025 749.684 14.6025 757.56 14.632C760.14 14.6222 762.72 14.6125 765.378 14.6025C772.192 15.104 772.192 15.104 777.856 18.88C780.971 18.88 784.086 18.88 787.296 18.88C789.165 20.1261 791.034 21.3721 792.96 22.656C795.346 16.4944 795.346 16.4944 794.848 7.55197C792.356 6.30589 789.864 5.05981 787.296 3.77597C787.296 2.52989 787.296 1.28381 787.296 -2.62185e-05Z" fill="#5A88C2"/>
<path d="M404.032 45.312C408.988 45.43 408.988 45.43 413.472 47.2C413.472 48.4461 413.472 49.6922 413.472 50.976C415.964 51.5991 418.456 52.2221 421.024 52.864C428.93 56.404 428.93 56.404 436.128 60.416C437.063 63.2197 437.063 63.2197 438.016 66.08C440.508 66.7031 443 67.3261 445.568 67.968C445.568 65.4759 445.568 62.9837 445.568 60.416C454.27 61.6771 460.863 63.0606 468.224 67.968C468.847 70.4602 469.47 72.9523 470.112 75.52C471.358 76.1431 472.604 76.7661 473.888 77.408C474.122 80.3285 474.355 83.249 474.596 86.258C475.151 93.1058 475.768 96.2736 479.198 102.424C480.561 104.137 481.924 105.851 483.328 107.616C485.911 111.347 488.444 115.115 490.88 118.944C490.88 120.19 490.88 121.436 490.88 122.72C486.439 123.85 481.94 124.752 477.428 125.552C468.361 127.178 459.936 129.171 451.232 132.16C444.964 133.59 438.672 134.74 432.352 135.936C436.719 135.356 441.085 134.763 445.45 134.166C447.881 133.837 450.313 133.509 452.818 133.17C454.787 132.837 456.755 132.504 458.784 132.16C459.407 131.537 460.03 130.914 460.672 130.272C466.535 129.548 472.374 128.929 478.254 128.384C480.822 128.134 480.822 128.134 483.442 127.879C494.524 126.813 505.607 125.903 516.722 125.257C521.822 124.73 521.822 124.73 528.64 120.832C529.886 121.455 531.132 122.078 532.416 122.72C532.18 129.21 532.18 129.21 530.528 135.936C528.036 137.182 525.544 138.428 522.976 139.712C522.976 141.581 522.976 143.45 522.976 145.376C524.222 145.999 525.468 146.622 526.752 147.264C527.375 149.756 527.998 152.248 528.64 154.816C526.148 155.439 523.656 156.062 521.088 156.704C520.465 155.458 519.842 154.212 519.2 152.928C517.331 154.797 515.462 156.666 513.536 158.592C511.901 157.93 510.265 157.268 508.58 156.586C507.1 156.002 505.621 155.418 504.096 154.816C503.473 157.308 502.85 159.8 502.208 162.368C500.339 164.237 500.339 164.237 498.432 166.144C489.7 166.734 489.7 166.734 481.44 166.144C481.44 164.275 481.44 162.406 481.44 160.48C477.186 158.182 477.186 158.182 470.112 156.704C465.07 157.273 460.035 157.906 455.008 158.592C448.4 159.064 448.4 159.064 443.68 158.592C443.68 156.723 443.68 154.854 443.68 152.928C439.664 153.292 435.649 153.695 431.659 154.272C422.072 155.321 412.477 154.057 402.904 153.194C398.884 152.9 394.846 152.888 390.816 152.928C390.193 154.797 389.57 156.666 388.928 158.592C385.152 156.704 385.152 156.704 383.264 154.816C372.434 154.042 363.617 156.26 353.292 159.418C350.454 160.272 347.617 161.127 344.693 162.007C338.367 163.559 338.367 163.559 336.064 166.144C315.271 169.658 293.747 168.672 272.724 168.797C267.477 168.838 262.231 168.903 256.984 168.99C249.431 169.115 241.88 169.168 234.326 169.205C231.949 169.257 229.572 169.31 227.123 169.364C220.625 169.348 220.625 169.348 211.456 168.032C212.534 162.435 212.534 162.435 217.12 156.704C220.231 155.36 223.372 154.079 226.56 152.928C225.625 150.124 225.625 150.124 224.672 147.264C224.318 138.532 224.318 138.532 224.672 130.272C226.541 129.337 226.541 129.337 228.448 128.384C229.266 131.071 230.084 133.758 230.926 136.526C231.977 139.447 233.029 142.367 234.112 145.376C238.686 148.98 238.686 148.98 243.552 149.152C244.434 143.143 244.434 143.143 243.434 135.582C243.109 131.687 243.109 131.687 242.778 127.713C242.127 120.679 242.127 120.679 237.888 115.168C237.733 107.793 237.733 107.793 238.242 99.12C238.386 96.2579 238.529 93.3958 238.677 90.447C239.04 88.0133 239.402 85.5795 239.776 83.072C241.645 81.2029 243.514 79.3338 245.44 77.408C246.063 79.2771 246.686 81.1463 247.328 83.072C245.558 88.146 245.558 88.146 243.552 92.512C245.11 91.889 246.667 91.2659 248.272 90.624C249.83 90.624 251.387 90.624 252.992 90.624C253.346 97.94 253.346 97.94 252.992 105.728C254.238 106.351 255.484 106.974 256.768 107.616C256.768 109.485 256.768 111.354 256.768 113.28C257.391 112.034 258.014 110.788 258.656 109.504C259.902 109.504 261.148 109.504 262.432 109.504C263.055 108.258 263.678 107.012 264.32 105.728C263.853 108.181 263.385 110.634 262.904 113.162C262.748 115.693 262.593 118.224 262.432 120.832C264.924 121.455 267.416 122.078 269.984 122.72C271.86 128.035 272.732 133.289 273.753 138.827C274.378 140.365 275.004 141.903 275.648 143.488C280.169 145.663 280.169 145.663 285.088 145.376C290.005 140.931 290.005 140.931 294.528 135.936C298.266 135.001 298.266 135.001 302.08 134.048C302.08 132.802 302.08 131.556 302.08 130.272C300.834 130.272 299.588 130.272 298.304 130.272C297.614 125.876 296.995 121.468 296.416 117.056C295.754 115.576 295.092 114.097 294.41 112.572C291.807 105.285 292.533 98.3082 292.64 90.624C292.037 87.4723 291.418 84.3231 290.752 81.184C291.375 79.9379 291.998 78.6919 292.64 77.408C291.394 77.408 290.148 77.408 288.864 77.408C288.591 80.1728 288.319 82.9375 288.038 85.786C287.512 90.0499 287.512 90.0499 286.976 94.4C285.107 95.0231 283.238 95.6461 281.312 96.288C281.192 102.87 281.192 102.87 282.138 110.448C282.629 115.156 283.018 119.878 283.2 124.608C281.331 125.543 281.331 125.543 279.424 126.496C277.427 121.504 275.564 116.457 273.76 111.392C270.525 104.824 267.258 98.2831 263.848 91.804C261.536 83.7122 262.006 76.3788 262.432 67.968C263.678 65.4759 264.924 62.9837 266.208 60.416C268.7 60.416 271.192 60.416 273.76 60.416C273.76 59.1699 273.76 57.9239 273.76 56.64C276.91 57.8899 280.056 59.1506 283.2 60.416C286.46 60.6313 289.727 60.7459 292.994 60.77C299.482 61.2359 303.593 62.1062 309.381 65.1581C316.424 70.0265 321.846 74.0163 326.624 81.184C326.624 83.0531 326.624 84.9223 326.624 86.848C329.739 86.848 332.854 86.848 336.064 86.848C335.129 83.1098 335.129 83.1098 334.176 79.296C335.422 79.296 336.668 79.296 337.952 79.296C337.952 80.5421 337.952 81.7882 337.952 83.072C341.69 84.0066 341.69 84.0066 345.504 84.96C347.373 86.8291 347.373 86.8291 349.28 88.736C349.28 91.2282 349.28 93.7203 349.28 96.288C350.526 96.288 351.772 96.288 353.056 96.288C353.251 99.1306 353.445 101.973 353.646 104.902C354.074 107.667 354.503 110.431 354.944 113.28C356.424 113.436 357.903 113.592 359.428 113.752C364.942 111.465 364.942 111.465 370.048 105.728C370.983 109.466 370.983 109.466 371.936 113.28C372.209 111.099 372.481 108.919 372.762 106.672C373.736 104.491 374.709 102.311 375.712 100.064C384.208 99.592 384.208 99.592 392.704 100.064C396.75 94.7997 396.75 94.7997 397.424 89.326C397.736 87.8852 398.047 86.4445 398.368 84.96C399.614 84.96 400.86 84.96 402.144 84.96C401.93 77.3578 401.144 69.8526 400.433 62.2819C400.256 54.752 400.256 54.752 401.775 49.0438C402.52 47.8123 403.265 46.5808 404.032 45.312Z" fill="#6794CA"/>
<path d="M55.814 41.8901C57.9557 42.3963 60.0974 42.9025 62.304 43.4241C63.2386 47.1623 63.2386 47.1624 64.192 50.9761C59.1598 51.1334 54.1202 51.1334 49.088 50.9761C49.711 52.2222 50.3341 53.4683 50.976 54.7521C55.9292 54.3909 60.7161 53.5201 65.608 52.6724C67.7108 52.7673 67.7108 52.7673 69.856 52.8641C70.7906 56.6024 70.7906 56.6023 71.744 60.4161C73.6131 61.0391 75.4822 61.6622 77.408 62.3041C76.785 63.5502 76.1619 64.7963 75.52 66.0801C71.1105 64.202 66.7054 62.3133 62.304 60.4161C60.4349 61.0391 58.5658 61.6622 56.64 62.3041C57.8861 64.7963 59.1322 67.2884 60.416 69.8561C61.6621 69.8561 62.9082 69.8561 64.192 69.8561C64.484 72.1341 64.484 72.1341 64.782 74.4581C65.2103 76.0546 65.6387 77.6512 66.08 79.2961C70.8368 80.6883 70.8368 80.6883 75.52 81.1841C75.52 82.4302 75.52 83.6763 75.52 84.9601C78.0122 83.714 80.5043 82.4679 83.072 81.1841C83.695 79.938 84.3181 78.6919 84.96 77.4081C83.0909 76.7851 81.2218 76.162 79.296 75.5201C79.296 74.274 79.296 73.0279 79.296 71.7441C81.7882 71.7441 84.2803 71.7441 86.848 71.7441C86.848 70.498 86.848 69.2519 86.848 67.9681C96.8689 62.3041 96.8689 62.3041 101.952 62.3041C101.952 64.7963 101.952 67.2884 101.952 69.8561C104.444 70.4791 106.936 71.1022 109.504 71.7441C109.504 72.9902 109.504 74.2363 109.504 75.5201C117.204 75.6786 117.204 75.6786 124.608 73.6321C124.55 69.071 124.55 69.071 122.72 64.1921C123.966 61.6999 125.212 59.2078 126.496 56.6401C128.365 56.0171 130.234 55.394 132.16 54.7521C132.632 60.0621 132.632 60.0621 132.16 66.0801C131.537 67.3262 130.914 68.5723 130.272 69.8561C131.518 69.8561 132.764 69.8561 134.048 69.8561C134.801 74.8738 135.416 79.9129 135.936 84.9601C136.871 88.6983 136.871 88.6983 137.824 92.5121C135.955 95.0043 134.086 97.4964 132.16 100.064C133.29 104.504 134.556 108.911 135.936 113.28C135.11 118.354 135.11 118.354 134.048 122.72C134.983 126.458 134.983 126.458 135.936 130.272C135.001 132.141 135.001 132.141 134.048 134.048C132.179 134.048 130.31 134.048 128.384 134.048C128.384 135.294 128.384 136.54 128.384 137.824C124.646 136.89 124.646 136.89 120.832 135.936C117.094 136.871 117.094 136.871 113.28 137.824C112.345 139.693 112.345 139.693 111.392 141.6C110.146 141.6 108.9 141.6 107.616 141.6C107.616 142.846 107.616 144.092 107.616 145.376C104.501 147.932 101.353 150.449 98.176 152.928C97.2414 154.797 97.2414 154.797 96.288 156.704C90.86 156.114 90.86 156.114 84.96 152.928C83.2859 148.68 83.2859 148.68 82.01 143.842C81.1144 141.233 80.2188 138.624 79.296 135.936C73.9427 136.903 73.9427 136.903 69.856 141.6C69.233 144.092 68.6099 146.584 67.968 149.152C70.4602 149.775 72.9523 150.398 75.52 151.04C77.3891 150.417 79.2582 149.794 81.184 149.152C83.19 153.636 83.19 153.636 84.96 158.592C86.8291 159.527 86.8291 159.527 88.736 160.48C88.736 162.972 88.736 165.464 88.736 168.032C63.6514 173.625 34.1784 174.802 8.75043 170.932C5.86279 169.975 2.97514 169.018 -4.45452e-06 168.032C-4.35494 162.374 -4.35494 162.374 -6.2245 155.214C-7.32061 137.044 -4.73199 118.53 2.53331 101.773C4.79274 97.4051 7.11174 93.0679 9.44 88.7361C9.44 85.6209 9.44 82.5057 9.44 79.2961C13.4372 76.1617 13.4372 76.1617 18.644 73.5141C23.7964 70.9681 23.7964 70.9681 28.32 67.9681C29.5661 65.4759 30.8122 62.9838 32.096 60.4161C33.3421 60.4161 34.5882 60.4161 35.872 60.4161C35.872 57.9239 35.872 55.4318 35.872 52.8641C40.2338 51.4621 44.6432 50.1993 49.088 49.0881C49.088 47.842 49.088 46.5959 49.088 45.3121C47.8419 44.6891 46.5958 44.066 45.312 43.4241C49.088 41.5361 49.088 41.5361 55.814 41.8901Z" fill="#4F83BC"/>
<path d="M679.68 28.3201C681.549 29.2546 681.549 29.2546 683.456 30.2081C681.587 32.0772 679.718 33.9463 677.792 35.8721C672.76 36.0344 667.72 36.0246 662.688 35.8721C659.526 36.4219 656.372 37.0251 653.248 37.7601C652.002 37.7601 650.756 37.7601 649.472 37.7601C649.472 38.3831 649.472 39.0061 649.472 39.6481C652.392 39.9985 652.392 39.9985 655.372 40.3561C657.163 40.7455 658.954 41.1349 660.8 41.5361C659.554 43.4052 658.308 45.2743 657.024 47.2001C658.893 48.1346 658.893 48.1346 660.8 49.0881C660.8 50.9572 660.8 52.8263 660.8 54.7521C662.319 54.4405 663.837 54.129 665.402 53.8081C666.999 53.4965 668.595 53.185 670.24 52.8641C671.175 55.6677 671.175 55.6677 672.128 58.5281C670.259 61.0202 668.39 63.5124 666.464 66.0801C658.086 66.4341 658.086 66.4341 649.472 66.0801C646.98 66.7031 644.488 67.3261 641.92 67.9681C640.674 67.345 639.428 66.722 638.144 66.0801C632.523 65.8456 626.896 65.7484 621.27 65.7261C618.216 65.6993 615.161 65.6725 612.014 65.6449C609.422 65.7885 606.83 65.9321 604.16 66.0801C602.291 67.3261 600.422 68.5722 598.496 69.8561C596.004 69.233 593.512 68.61 590.944 67.9681C589.698 70.4602 588.452 72.9524 587.168 75.5201C589.66 76.7661 592.152 78.0122 594.72 79.2961C594.72 80.5421 594.72 81.7882 594.72 83.0721C596.784 83.6562 598.848 84.2403 600.974 84.8421C607.936 86.8481 607.936 86.8481 613.6 92.5121C611.731 94.3812 611.731 94.3812 609.824 96.2881C604.912 96.5241 604.912 96.5241 599.204 96.2881C593.687 95.9707 593.687 95.9707 589.056 96.2881C589.056 97.5341 589.056 98.7802 589.056 100.064C591.548 100.687 594.04 101.31 596.608 101.952C596.608 103.821 596.608 105.69 596.608 107.616C595.362 107.616 594.116 107.616 592.832 107.616C592.209 110.108 591.586 112.6 590.944 115.168C582.529 115.84 574.388 115.846 565.961 115.592C560.776 115.617 556.309 115.708 551.296 117.056C546.512 123.57 546.512 123.57 543.744 130.272C541.875 129.649 540.006 129.026 538.08 128.384C536.428 123.664 536.428 123.664 536.192 118.944C538.061 118.321 539.93 117.698 541.856 117.056C540.61 114.564 539.364 112.072 538.08 109.504C538.703 111.373 539.326 113.242 539.968 115.168C530.076 120.114 521.821 121.197 510.822 121.54C508.761 121.633 506.699 121.725 504.575 121.82C503.171 121.494 501.767 121.168 500.32 120.832C501.2 118.737 501.2 118.737 502.097 116.599C502.757 114.881 503.416 113.162 504.096 111.392C500.618 106.795 500.618 106.795 495.364 102.896C488.599 97.391 482.575 92.2389 477.664 84.9601C478.91 84.337 480.156 83.714 481.44 83.0721C479.938 78.4499 479.938 78.4499 477.664 73.6321C477.041 71.7629 476.418 69.8938 475.776 67.9681C476.399 66.0989 477.022 64.2298 477.664 62.3041C475.795 61.058 473.926 59.8119 472 58.5281C478.884 58.3761 485.765 58.2633 492.65 58.1741C495.598 58.1029 495.598 58.1029 498.605 58.0303C503.585 57.9816 508.565 58.2315 513.536 58.5281C514.159 60.3972 514.782 62.2663 515.424 64.1921C517.293 64.8151 519.162 65.4381 521.088 66.0801C519.842 66.7031 518.596 67.3261 517.312 67.9681C519.96 69.2531 522.608 70.5381 525.336 71.8621C527.57 72.9463 527.57 72.9463 529.849 74.0524C532.054 74.7789 532.054 74.7789 534.304 75.5201C536.796 74.897 539.288 74.274 541.856 73.6321C545.039 74.7965 548.189 76.0538 551.296 77.4081C553.165 77.4081 555.034 77.4081 556.96 77.4081C557.583 74.9159 558.206 72.4237 558.848 69.8561C560.094 69.8561 561.34 69.8561 562.624 69.8561C562.624 68.61 562.624 67.3639 562.624 66.0801C568.996 62.0681 568.996 62.0681 575.84 58.5281C577.086 58.5281 578.332 58.5281 579.616 58.5281C579.616 56.6589 579.616 54.7898 579.616 52.8641C583.694 52.2446 583.694 52.2446 589.174 52.3921C591.082 52.4407 592.99 52.4894 594.956 52.5396C601.24 52.9152 607.372 53.8462 613.6 54.7521C624.428 55.2098 635.042 55.0384 645.696 52.8641C647.565 51.618 649.434 50.3719 651.36 49.0881C647.622 48.465 643.884 47.842 640.032 47.2001C642.524 46.577 645.016 45.954 647.584 45.3121C647.584 44.066 647.584 42.8199 647.584 41.5361C627.48 39.0414 598.938 40.7594 579.616 47.2001C562.31 49.2985 544.136 50.5067 526.752 49.0881C526.752 47.842 526.752 46.5959 526.752 45.3121C520.907 43.6683 515.23 43.243 509.17 42.7161C506.873 42.3267 504.575 41.9373 502.208 41.5361C502.208 39.6669 502.208 37.7978 502.208 35.8721C511.711 31.1203 525.149 32.5887 535.602 31.9781C538.319 31.8065 541.037 31.6349 543.836 31.4581C561.383 30.4074 579.03 29.3793 596.608 30.2081C597.543 31.1426 597.543 31.1426 598.496 32.0961C606.389 32.5864 614.308 32.4537 622.214 32.4501C624.525 32.4527 626.835 32.4552 629.216 32.4579C644.588 32.3757 659.309 31.4204 674.495 28.9617C676.206 28.75 677.917 28.5382 679.68 28.3201Z" fill="#528FC9"/>
<path d="M134.048 50.976C135.464 56.522 135.464 56.522 135.936 62.304C135.313 63.5501 134.69 64.7962 134.048 66.08C135.294 66.08 136.54 66.08 137.824 66.08C139.432 71.6629 139.432 71.6629 140.892 78.942C141.629 82.5233 141.629 82.5233 142.382 86.1769C143.488 92.512 143.488 92.512 143.488 98.176C144.734 98.799 145.98 99.4221 147.264 100.064C143.526 101.933 143.526 101.933 139.712 103.84C142.204 104.463 144.696 105.086 147.264 105.728C146.556 111.51 146.556 111.51 145.376 117.056C146.622 117.056 147.868 117.056 149.152 117.056C148.977 119.977 148.977 119.977 148.798 122.956C148.915 124.747 149.032 126.538 149.152 128.384C150.593 128.306 152.034 128.228 153.518 128.148C159.325 124.71 159.325 124.71 162.368 116.82C162.991 114.406 163.614 111.991 164.256 109.504C162.387 109.504 160.518 109.504 158.592 109.504C159.118 107.226 159.118 107.226 159.654 104.902C159.927 103.305 160.199 101.709 160.48 100.064C157.988 99.441 155.496 98.8179 152.928 98.176C152.928 96.9299 152.928 95.6838 152.928 94.4C154.174 93.777 155.42 93.1539 156.704 92.512C158.037 86.8651 159.297 81.2002 160.48 75.52C161.103 74.897 161.726 74.2739 162.368 73.632C162.903 68.2684 163.215 62.905 163.541 57.525C163.895 55.2178 163.895 55.2178 164.256 52.864C165.502 52.241 166.748 51.6179 168.032 50.976C168.967 52.8451 168.967 52.8451 169.92 54.752C172.412 55.9981 174.904 57.2442 177.472 58.528C179.341 59.7741 181.21 61.0202 183.136 62.304C183.136 61.0579 183.136 59.8118 183.136 58.528C185.005 57.905 186.874 57.2819 188.8 56.64C189.735 59.4437 189.735 59.4437 190.688 62.304C192.557 61.681 194.426 61.0579 196.352 60.416C196.352 61.6621 196.352 62.9082 196.352 64.192C198.494 64.3867 200.635 64.5814 202.842 64.782C206.171 65.4245 206.171 65.4245 209.568 66.08C211.81 70.918 211.81 70.918 211.456 75.52C208.964 75.52 206.472 75.52 203.904 75.52C202.96 81.184 202.96 81.184 203.904 86.848C205.15 86.848 206.396 86.848 207.68 86.848C208.115 91.1919 208.115 91.1919 208.034 96.878C208.022 98.7398 208.01 100.602 207.997 102.52C207.68 107.616 207.68 107.616 205.792 113.28C200.246 113.044 200.246 113.044 194.464 111.392C193.218 109.523 191.972 107.654 190.688 105.728C191.934 103.236 193.18 100.744 194.464 98.176C195.71 98.176 196.956 98.176 198.24 98.176C198.24 96.3069 198.24 94.4378 198.24 92.512C193.806 90.3035 193.806 90.3035 188.8 90.624C186.308 94.7195 186.308 94.7195 185.024 100.064C183.765 103.211 182.507 106.357 181.248 109.504C183.117 108.881 184.986 108.258 186.912 107.616C187.847 110.42 187.847 110.42 188.8 113.28C186.931 115.149 185.062 117.018 183.136 118.944C183.65 122.112 184.297 125.258 185.024 128.384C184.788 134.756 184.788 134.756 183.136 139.712C177.3 139.712 173.557 137.753 168.386 135.11C167.023 134.76 165.66 134.409 164.256 134.048C164.166 137.823 164.186 141.601 164.256 145.376C160.716 149.86 160.716 149.86 156.704 152.928C155.458 152.928 154.212 152.928 152.928 152.928C152.928 151.059 152.928 149.19 152.928 147.264C149.813 147.264 146.698 147.264 143.488 147.264C141.896 151.759 141.896 151.759 141.6 156.704C140.665 158.573 140.665 158.573 139.712 160.48C138.466 160.48 137.22 160.48 135.936 160.48C135.936 158.611 135.936 156.742 135.936 154.816C131.03 155.675 131.03 155.675 126.496 158.592C126.496 161.084 126.496 163.576 126.496 166.144C122.086 166.948 122.086 166.948 116.348 166.734C114.464 166.688 112.581 166.642 110.64 166.594C105.728 166.144 105.728 166.144 101.952 164.256C101.952 165.502 101.952 166.748 101.952 168.032C95.344 168.74 95.344 168.74 88.736 168.032C88.736 165.54 88.736 163.048 88.736 160.48C86.8669 159.857 84.9978 159.234 83.072 158.592C82.7605 156.918 82.449 155.243 82.128 153.518C81.8165 152.077 81.505 150.636 81.184 149.152C79.3149 150.398 77.4458 151.644 75.52 152.928C73.0279 152.305 70.5357 151.682 67.968 151.04C67.0335 148.236 67.0335 148.236 66.08 145.376C69.384 140.302 69.384 140.302 73.632 135.936C75.5011 135.936 77.3703 135.936 79.296 135.936C80.1138 138.311 80.9315 140.687 81.774 143.134C83.3511 147.047 83.3511 147.047 84.96 151.04C90.3522 155.557 90.3522 155.557 96.288 156.704C97.5341 154.212 98.7802 151.72 100.064 149.152C102.556 147.906 105.048 146.66 107.616 145.376C107.616 144.13 107.616 142.884 107.616 141.6C108.862 141.6 110.108 141.6 111.392 141.6C112.015 139.731 112.638 137.862 113.28 135.936C117.018 135.001 117.018 135.001 120.832 134.048C123.324 135.294 125.816 136.54 128.384 137.824C128.384 136.578 128.384 135.332 128.384 134.048C130.253 134.048 132.122 134.048 134.048 134.048C133.74 129.307 133.404 124.56 132.772 119.851C131.884 113.059 132.358 108.712 134.048 101.952C132.802 101.329 131.556 100.706 130.272 100.064C132.789 95.6587 135.307 91.2533 137.824 86.848C136.578 86.225 135.332 85.6019 134.048 84.96C134.048 79.9253 134.048 74.8907 134.048 69.856C132.802 69.856 131.556 69.856 130.272 69.856C130.272 65.4507 130.272 61.0453 130.272 56.64C129.026 57.263 127.78 57.8861 126.496 58.528C125.074 65.0226 125.074 65.0226 124.608 71.744C125.231 72.9901 125.854 74.2362 126.496 75.52C118.118 75.992 118.118 75.992 109.504 75.52C109.504 74.2739 109.504 73.0278 109.504 71.744C106.389 71.744 103.274 71.744 100.064 71.744C100.772 66.906 100.772 66.906 101.952 62.304C100.083 62.927 98.2138 63.5501 96.288 64.192C96.288 62.3229 96.288 60.4538 96.288 58.528C101.834 56.994 101.834 56.994 107.616 56.64C108.239 57.8861 108.862 59.1322 109.504 60.416C108.881 62.9082 108.258 65.4003 107.616 67.968C113.531 65.8761 113.531 65.8761 118.944 62.304C118.329 59.1544 117.701 56.0075 117.056 52.864C123.749 49.5176 126.868 48.5828 134.048 50.976Z" fill="#5688C1"/>
<path d="M579.616 115.168C579.616 122.077 577.577 125.122 574.188 131.098C570.821 137.076 567.582 143.011 564.512 149.152C565.914 147.556 567.316 145.959 568.76 144.314C571.33 142.036 571.33 142.036 573.952 139.712C576.444 140.335 578.936 140.958 581.504 141.6C580.881 143.469 580.258 145.338 579.616 147.264C578.37 147.264 577.124 147.264 575.84 147.264C580.301 152.033 582.759 154.605 589.056 156.704C588.744 155.224 588.433 153.745 588.112 152.22C587.645 149.767 587.645 149.767 587.168 147.264C589.037 146.641 590.906 146.018 592.832 145.376C593.455 143.507 594.078 141.638 594.72 139.712C595.966 139.712 597.212 139.712 598.496 139.712C598.807 137.492 599.119 135.273 599.44 132.986C599.751 130.844 600.063 128.703 600.384 126.496C601.63 127.119 602.876 127.742 604.16 128.384C605.406 127.138 606.652 125.892 607.936 124.608C607.936 126.477 607.936 128.346 607.936 130.272C610.214 129.279 610.214 129.279 612.538 128.266C614.134 127.682 615.731 127.098 617.376 126.496C619.264 134.048 619.264 134.048 619.264 135.936C621.133 135.936 623.002 135.936 624.928 135.936C624.928 134.69 624.928 133.444 624.928 132.16C628.704 128.384 628.704 128.384 632.48 126.496C631.545 123.692 631.545 123.692 630.592 120.832C639.345 119.021 646.482 118.734 655.136 120.832C655.759 120.209 656.382 119.586 657.024 118.944C662.688 118.472 662.688 118.472 668.352 118.944C669.287 121.748 669.287 121.748 670.24 124.608C672.46 125.017 672.46 125.017 674.724 125.434C676.359 125.785 677.995 126.135 679.68 126.496C681.549 128.988 683.418 131.48 685.344 134.048C684.543 148.866 684.543 148.866 681.568 154.816C684.68 154.336 687.787 153.817 690.89 153.282C692.62 152.997 694.351 152.713 696.134 152.419C697.557 151.964 698.981 151.509 700.448 151.04C701.383 148.236 701.383 148.236 702.336 145.376C708.944 143.134 708.944 143.134 715.552 143.488C718.03 150.686 718.03 150.686 717.44 158.592C711.894 161.66 711.894 161.66 706.112 162.368C706.112 161.122 706.112 159.876 706.112 158.592C703.62 157.969 701.128 157.346 698.56 156.704C695.756 157.639 695.756 157.639 692.896 158.592C693.361 160.164 693.827 161.736 694.307 163.356C694.464 164.899 694.622 166.442 694.784 168.032C689.492 169.218 689.492 169.218 681.653 169.224C678.743 169.247 675.832 169.271 672.833 169.295C669.611 169.272 666.389 169.247 663.167 169.219C659.905 169.221 656.643 169.226 653.381 169.233C646.525 169.239 639.671 169.211 632.815 169.159C623.999 169.095 615.186 169.106 606.37 169.141C599.627 169.161 592.885 169.145 586.143 169.116C582.891 169.106 579.64 169.107 576.389 169.119C571.853 169.129 567.318 169.086 562.783 169.039C560.195 169.028 557.606 169.016 554.94 169.004C553.114 168.683 551.289 168.362 549.408 168.032C549.408 165.54 549.408 163.048 549.408 160.48C551.277 159.857 553.146 159.234 555.072 158.592C556.318 159.215 557.564 159.838 558.848 160.48C557.741 154.785 556.479 149.117 555.072 143.488C553.826 143.488 552.58 143.488 551.296 143.488C550.441 129.984 550.441 129.984 551.296 124.608C553.165 123.985 555.034 123.362 556.96 122.72C556.96 121.474 556.96 120.228 556.96 118.944C564.438 114.865 571.202 114.343 579.616 115.168Z" fill="#6792C9"/>
<path d="M28.556 71.5081C29.7242 72.209 30.8924 72.9099 32.096 73.6321C29.854 79.4141 29.854 79.4141 26.432 84.9601C29.1967 83.9087 31.9615 82.8573 34.81 81.7741C37.6526 80.9563 40.4952 80.1386 43.424 79.2961C44.047 81.1652 44.6701 83.0343 45.312 84.9601C53.2461 86.4912 60.7156 86.8481 68.794 86.8481C71.0136 86.8481 73.2332 86.8481 75.52 86.8481C76.4546 87.7826 76.4546 87.7826 77.408 88.7361C85.9064 89.329 92.0909 87.7333 100.064 84.9601C102.556 84.9601 105.048 84.9601 107.616 84.9601C107.616 83.714 107.616 82.4679 107.616 81.1841C110.731 81.1841 113.846 81.1841 117.056 81.1841C117.056 79.938 117.056 78.6919 117.056 77.4081C123.664 77.7621 123.664 77.7621 130.272 79.2961C130.272 81.1652 130.272 83.0343 130.272 84.9601C129.026 84.9601 127.78 84.9601 126.496 84.9601C126.496 88.0753 126.496 91.1905 126.496 94.4001C125.25 94.4001 124.004 94.4001 122.72 94.4001C122.075 97.5436 121.447 100.69 120.832 103.84C118.963 104.775 118.963 104.775 117.056 105.728C120.517 111.707 120.517 111.707 126.496 115.168C125.561 117.972 125.561 117.972 124.608 120.832C120.843 121.524 117.066 122.156 113.28 122.72C113.28 123.966 113.28 125.212 113.28 126.496C108.656 127.211 108.656 127.211 102.542 127.558C95.2217 127.996 88.3626 128.825 81.184 130.272C77.999 130.449 74.8129 130.606 71.626 130.744C68.5497 131.211 65.4735 131.679 62.304 132.16C61.019 133.796 59.734 135.431 58.41 137.116C57.2029 138.596 55.9957 140.076 54.752 141.6C45.784 141.6 45.784 141.6 37.76 139.712C37.76 137.843 37.76 135.974 37.76 134.048C36.5139 134.048 35.2678 134.048 33.984 134.048C33.361 132.179 32.7379 130.31 32.096 128.384C30.2269 130.253 28.3578 132.122 26.432 134.048C25.1859 132.179 23.9398 130.31 22.656 128.384C19.5408 128.384 16.4256 128.384 13.216 128.384C13.216 126.515 13.216 124.646 13.216 122.72C11.9699 122.097 10.7238 121.474 9.44 120.832C8.81696 120.209 8.19392 119.586 7.552 118.944C5.68288 118.321 3.81376 117.698 1.888 117.056C0.302375 112.808 0.302375 112.808 0 107.616C1.88063 102.896 1.88063 102.896 4.602 98.1761C8.91299 90.6583 9.44 88.5478 9.44 79.2961C15.9466 74.448 20.3856 71.8349 28.556 71.5081Z" fill="#487BB6"/>
<path d="M404.032 45.312C408.988 45.43 408.988 45.43 413.472 47.2C413.472 48.4461 413.472 49.6922 413.472 50.976C415.964 51.5991 418.456 52.2221 421.024 52.864C428.93 56.404 428.93 56.404 436.128 60.416C437.063 63.2197 437.063 63.2197 438.016 66.08C440.508 66.7031 443 67.3261 445.568 67.968C445.568 65.4759 445.568 62.9837 445.568 60.416C454.269 61.6771 460.863 63.0606 468.224 67.968C469.159 71.7063 469.159 71.7063 470.112 75.52C471.358 76.1431 472.604 76.7661 473.888 77.408C474.122 80.3285 474.355 83.249 474.596 86.258C475.151 93.1058 475.768 96.2736 479.198 102.424C481.242 104.994 481.242 104.994 483.328 107.616C485.911 111.347 488.444 115.115 490.88 118.944C490.88 120.19 490.88 121.436 490.88 122.72C485.083 124.261 485.083 124.261 477.428 125.67C474.931 126.14 472.434 126.609 469.861 127.093C466.247 127.732 466.247 127.732 462.56 128.384C460.438 128.834 458.316 129.284 456.129 129.748C454.513 129.921 452.897 130.094 451.232 130.272C448.636 126.26 448.636 126.26 447.456 120.832C447.456 117.717 447.456 114.602 447.456 111.392C448.702 109.523 449.948 107.654 451.232 105.728C448.117 105.728 445.002 105.728 441.792 105.728C440.799 102.048 440.799 102.048 439.786 98.294C438.579 95.7629 437.372 93.2318 436.128 90.624C428.575 88.2604 421.317 87.7445 413.472 88.736C411.603 90.6051 409.734 92.4743 407.808 94.4C407.185 96.8922 406.562 99.3843 405.92 101.952C401.217 104.266 396.475 105.648 391.472 107.196C390.01 107.957 388.547 108.719 387.04 109.504C385.747 112.637 384.485 115.783 383.264 118.944C378.241 119.662 373.205 120.289 368.16 120.832C366.291 123.324 364.422 125.816 362.496 128.384C356.507 129.8 356.507 129.8 351.168 128.384C350.194 121.776 350.194 121.776 350.696 113.28C350.958 108.25 351.145 103.213 351.168 98.176C349.922 98.176 348.676 98.176 347.392 98.176C346.574 100.921 346.574 100.921 345.74 103.722C345.039 105.63 344.338 107.538 343.616 109.504C339.878 110.439 339.878 110.439 336.064 111.392C336.103 109.601 336.142 107.81 336.182 105.964C336.143 104.017 336.104 102.07 336.064 100.064C334.545 99.8693 333.027 99.6746 331.462 99.474C329.865 99.0457 328.269 98.6173 326.624 98.176C325.09 89.562 325.09 89.562 324.736 81.184C325.359 83.0531 325.982 84.9223 326.624 86.848C329.739 86.848 332.854 86.848 336.064 86.848C335.441 84.3559 334.818 81.8637 334.176 79.296C335.422 79.296 336.668 79.296 337.952 79.296C337.952 80.5421 337.952 81.7882 337.952 83.072C340.444 83.6951 342.936 84.3181 345.504 84.96C346.75 86.2061 347.996 87.4522 349.28 88.736C349.28 91.2282 349.28 93.7203 349.28 96.288C350.526 96.288 351.772 96.288 353.056 96.288C353.251 99.1306 353.445 101.973 353.646 104.902C354.074 107.667 354.503 110.431 354.944 113.28C356.424 113.436 357.903 113.592 359.428 113.752C364.942 111.465 364.942 111.465 370.048 105.728C370.671 108.22 371.294 110.712 371.936 113.28C372.209 111.099 372.481 108.919 372.762 106.672C373.735 104.491 374.709 102.311 375.712 100.064C384.208 99.592 384.208 99.592 392.704 100.064C396.75 94.7997 396.75 94.7997 397.424 89.326C397.735 87.8852 398.047 86.4445 398.368 84.96C399.614 84.96 400.86 84.96 402.144 84.96C401.93 77.3578 401.144 69.8526 400.433 62.2819C400.256 54.752 400.256 54.752 401.775 49.0438C402.52 47.8123 403.265 46.5808 404.032 45.312Z" fill="#5F91CB"/>
<path d="M526.752 120.832C528.621 121.455 530.49 122.078 532.416 122.72C532.298 129.21 532.298 129.21 530.528 135.936C528.036 137.182 525.544 138.428 522.976 139.712C522.976 141.581 522.976 143.45 522.976 145.376C524.845 146.311 524.845 146.311 526.752 147.264C527.687 151.002 527.687 151.002 528.64 154.816C526.148 155.439 523.656 156.062 521.088 156.704C520.153 154.835 520.153 154.835 519.2 152.928C517.331 154.797 515.462 156.666 513.536 158.592C511.901 157.93 510.265 157.268 508.58 156.586C506.36 155.71 506.36 155.71 504.096 154.816C503.473 157.308 502.85 159.8 502.208 162.368C500.962 163.614 499.716 164.86 498.432 166.144C489.7 166.734 489.7 166.734 481.44 166.144C481.44 164.275 481.44 162.406 481.44 160.48C477.186 158.182 477.186 158.182 470.112 156.704C465.07 157.273 460.035 157.906 455.008 158.592C448.4 159.064 448.4 159.064 443.68 158.592C443.68 156.723 443.68 154.854 443.68 152.928C439.664 153.292 435.649 153.695 431.659 154.272C422.072 155.321 412.477 154.057 402.904 153.194C398.884 152.901 394.846 152.888 390.816 152.928C390.193 154.797 389.57 156.666 388.928 158.592C387.682 157.969 386.436 157.346 385.152 156.704C382.011 155.432 378.864 154.172 375.712 152.928C377.581 152.305 379.45 151.682 381.376 151.04C381.688 149.405 381.999 147.769 382.32 146.084C382.787 143.864 382.787 143.864 383.264 141.6C385.133 142.223 387.002 142.846 388.928 143.488C388.928 142.242 388.928 140.996 388.928 139.712C387.682 139.089 386.436 138.466 385.152 137.824C383.264 135.936 383.264 135.936 381.376 130.272C381.376 128.403 381.376 126.534 381.376 124.608C383.245 123.985 385.114 123.362 387.04 122.72C387.04 124.589 387.04 126.458 387.04 128.384C388.286 128.384 389.532 128.384 390.816 128.384C390.816 127.138 390.816 125.892 390.816 124.608C396.244 122.72 396.244 122.72 402.144 122.72C404.504 128.148 404.504 128.148 405.92 134.048C407.166 134.671 408.412 135.294 409.696 135.936C409.073 136.559 408.45 137.182 407.808 137.824C424.863 136.617 441.917 135.012 458.784 132.16C459.407 131.537 460.03 130.914 460.672 130.272C466.535 129.548 472.374 128.929 478.254 128.384C480.82 128.134 480.82 128.134 483.438 127.879C492.874 126.97 502.308 126.204 511.766 125.552C520.917 125.36 520.917 125.36 526.752 120.832Z" fill="#6592C9"/>
<path d="M112.572 29.9721C114.276 29.9648 115.979 29.9575 117.735 29.95C127.112 29.9636 136.153 30.3406 145.376 32.0961C146.311 33.0306 146.311 33.0306 147.264 33.9841C147.186 35.8921 147.108 37.8002 147.028 39.7661C147.106 41.5963 147.184 43.4264 147.264 45.3121C149.133 45.3121 151.002 45.3121 152.928 45.3121C153.551 43.443 154.174 41.5738 154.816 39.6481C156.062 39.6481 157.308 39.6481 158.592 39.6481C162.421 53.4321 161.389 69.2005 158.592 83.0721C158.592 86.1873 158.592 89.3025 158.592 92.5121C156.723 93.1351 154.854 93.7582 152.928 94.4001C153.551 95.6462 154.174 96.8922 154.816 98.1761C156.685 98.7991 158.554 99.4222 160.48 100.064C159.865 103.214 159.237 106.361 158.592 109.504C160.461 109.504 162.33 109.504 164.256 109.504C161.226 121.622 161.226 121.622 158.592 126.496C153.636 128.738 153.636 128.738 149.152 128.384C148.798 122.838 148.798 122.838 149.152 117.056C147.906 117.056 146.66 117.056 145.376 117.056C145.804 115.187 146.233 113.318 146.674 111.392C146.869 109.523 147.063 107.654 147.264 105.728C144.149 105.728 141.034 105.728 137.824 105.728C138.759 103.859 138.759 103.859 139.712 101.952C141.581 101.329 143.45 100.706 145.376 100.064C143.344 92.8511 141.183 86.0142 137.824 79.2961C137.863 77.0376 137.902 74.779 137.942 72.4521C137.903 70.3493 137.864 68.2466 137.824 66.0801C136.578 66.0801 135.332 66.0801 134.048 66.0801C133.931 63.549 133.814 61.0179 133.694 58.4101C133.188 55.9569 132.682 53.5036 132.16 50.9761C125.237 49.7174 125.237 49.7174 118.944 52.8641C119.411 55.6093 119.411 55.6093 119.888 58.4101C120.355 61.2722 120.355 61.2722 120.832 64.1921C114.342 67.3781 114.342 67.3781 107.616 67.9681C107.616 64.8529 107.616 61.7377 107.616 58.5281C101.952 57.2694 101.952 57.2694 96.288 58.5281C96.288 60.3972 96.288 62.2663 96.288 64.1921C94.4189 64.1921 92.5498 64.1921 90.624 64.1921C88.264 60.0621 88.264 60.0621 86.848 54.7521C87.3932 52.9608 87.9383 51.1696 88.5 49.3241C88.5779 48.0001 88.6558 46.6762 88.736 45.3121C81.315 45.8067 81.315 45.8067 73.632 47.2001C73.009 45.954 72.3859 44.7079 71.744 43.4241C69.8749 42.178 68.0058 40.9319 66.08 39.6481C69.384 35.7541 69.384 35.7541 75.52 32.0961C87.8983 30.2166 100.089 29.9181 112.572 29.9721Z" fill="#6390C7"/>
<path d="M657.024 94.3999C664.576 96.2879 664.576 96.2879 669.65 99.4739C671.091 100.292 672.532 101.109 674.016 101.952C674.639 100.706 675.262 99.4597 675.904 98.1759C677.15 98.1759 678.396 98.1759 679.68 98.1759C679.68 99.422 679.68 100.668 679.68 101.952C686.787 105.728 686.787 105.728 692.896 107.616C694.142 108.862 695.388 110.108 696.672 111.392C696.049 113.884 695.426 116.376 694.784 118.944C693.538 120.19 692.292 121.436 691.008 122.72C695.506 121.961 695.506 121.961 700.094 121.186C705.338 120.648 705.338 120.648 709.888 120.832C713.428 125.08 713.428 125.08 715.552 130.272C718.044 132.141 720.536 134.01 723.104 135.936C723.104 137.182 723.104 138.428 723.104 139.712C724.35 139.712 725.596 139.712 726.88 139.712C726.88 140.958 726.88 142.204 726.88 143.488C731.203 143.879 731.203 143.879 736.32 143.606C739.465 143.505 742.613 143.449 745.76 143.488C745.76 144.111 745.76 144.734 745.76 145.376C742.645 145.376 739.53 145.376 736.32 145.376C737.255 148.18 737.255 148.18 738.208 151.04C737.585 152.286 736.962 153.532 736.32 154.816C742.74 157.482 742.74 157.482 749.536 158.592C749.536 156.723 749.536 154.854 749.536 152.928C752.281 153.512 752.281 153.512 755.082 154.108C756.99 154.342 758.898 154.575 760.864 154.816C761.568 151.685 762.199 148.537 762.752 145.376C767.875 145.639 771.399 146.867 775.968 149.152C776.591 147.906 777.214 146.66 777.856 145.376C781.594 146.31 781.594 146.31 785.408 147.264C786.343 151.002 786.343 151.002 787.296 154.816C779.154 158.238 779.154 158.238 770.304 160.48C769.058 159.857 767.812 159.234 766.528 158.592C766.528 157.346 766.528 156.1 766.528 154.816C760.739 157.081 760.739 157.081 755.2 160.48C755.2 161.726 755.2 162.972 755.2 164.256C757.692 164.879 760.184 165.502 762.752 166.144C762.752 166.767 762.752 167.39 762.752 168.032C753.115 168.597 743.469 168.625 733.817 168.693C730.533 168.724 727.249 168.776 723.966 168.848C719.257 168.951 714.546 168.986 709.836 169.02C706.999 169.058 704.161 169.095 701.238 169.134C699.108 168.77 696.978 168.406 694.784 168.032C693.617 165.782 693.617 165.782 692.427 163.486C692.582 161.871 692.737 160.256 692.896 158.592C695.388 157.346 697.88 156.1 700.448 154.816C702.317 156.062 704.186 157.308 706.112 158.592C706.112 159.838 706.112 161.084 706.112 162.368C711.093 161.954 711.093 161.954 715.552 158.592C717.442 150.796 717.442 150.796 715.552 143.488C708.744 142.707 708.744 142.707 702.336 145.376C703.271 148.18 703.271 148.18 704.224 151.04C700.411 152.898 700.411 152.898 695.138 154.344C692.55 155.089 692.55 155.089 689.909 155.848C688.403 156.131 686.896 156.413 685.344 156.704C684.098 156.081 682.852 155.458 681.568 154.816C681.855 149.562 682.679 144.463 683.463 139.262C683.461 137.541 683.459 135.821 683.456 134.048C681.587 131.556 679.718 129.064 677.792 126.496C675.3 125.873 672.808 125.25 670.24 124.608C669.617 123.362 668.994 122.116 668.352 120.832C662.767 120.36 662.767 120.36 657.024 120.832C655.155 121.766 655.155 121.766 653.248 122.72C650.756 122.097 648.264 121.474 645.696 120.832C645.696 119.586 645.696 118.34 645.696 117.056C643.204 117.056 640.712 117.056 638.144 117.056C638.767 115.187 639.39 113.318 640.032 111.392C642.174 110.925 644.315 110.457 646.522 109.976C649.851 108.808 649.851 108.808 653.248 107.616C654.652 103.255 655.933 98.8496 657.024 94.3999Z" fill="#5B8AC3"/>
<path d="M840.16 122.72C844.762 123.9 844.762 123.9 849.6 126.496C850.846 128.988 852.092 131.48 853.376 134.048C855.868 134.671 858.36 135.294 860.928 135.936C861.551 138.428 862.174 140.92 862.816 143.488C865.931 143.488 869.046 143.488 872.256 143.488C873.502 144.734 874.748 145.98 876.032 147.264C876.032 149.133 876.032 151.002 876.032 152.928C882.56 154.029 882.56 154.029 889.248 152.928C889.871 150.436 890.494 147.944 891.136 145.376C895.856 143.488 895.856 143.488 900.576 143.488C901.511 147.226 901.511 147.226 902.464 151.04C904.849 156.33 904.849 156.33 908.128 160.48C914.237 158.592 914.237 158.592 921.344 154.816C922.59 155.439 923.836 156.062 925.12 156.704C925.12 157.95 925.12 159.196 925.12 160.48C927.612 160.48 930.104 160.48 932.672 160.48C933.607 163.284 933.607 163.284 934.56 166.144C929.575 166.757 929.575 166.757 922.354 166.631C919.793 166.604 917.231 166.577 914.592 166.55C911.875 166.494 909.158 166.438 906.358 166.38C901.031 166.299 895.704 166.224 890.376 166.159C887.991 166.113 885.606 166.067 883.149 166.02C881.424 166.061 879.698 166.102 877.92 166.144C877.92 166.767 877.92 167.39 877.92 168.032C868.589 168.691 859.247 168.787 849.895 168.9C846.715 168.951 843.536 169.028 840.357 169.133C835.794 169.281 831.229 169.337 826.664 169.389C823.915 169.446 821.166 169.503 818.335 169.562C816.191 169.057 814.048 168.552 811.84 168.032C808.139 160.007 808.064 154.265 808.064 145.376C809.31 145.376 810.556 145.376 811.84 145.376C811.217 142.884 810.594 140.392 809.952 137.824C815.003 138.305 820.041 138.94 825.056 139.712C825.056 138.466 825.056 137.22 825.056 135.936C829.434 132.752 833.841 129.606 838.272 126.496C838.895 125.25 839.518 124.004 840.16 122.72Z" fill="#5483BD"/>
<path d="M486.816 24.7726C490.446 24.9091 490.446 24.9091 494.149 25.0483C496.847 25.1544 499.546 25.2606 502.326 25.37C524.984 26.1874 547.586 26.4922 570.257 26.3656C573.921 26.3482 573.921 26.3482 577.658 26.3305C590.011 26.267 602.362 26.1685 614.714 26.0296C619.289 26.0005 623.864 25.9723 628.439 25.9453C630.593 25.91 632.747 25.8748 634.967 25.8385C639.806 25.8224 644.645 26.0885 649.472 26.432C648.849 28.3011 648.226 30.1702 647.584 32.096C642.894 32.9423 642.894 32.9423 636.728 33.1285C633.428 33.2417 633.428 33.2417 630.061 33.3571C626.586 33.4338 626.586 33.4338 623.04 33.512C620.723 33.5923 618.406 33.6726 616.019 33.7554C603.597 34.1264 603.597 34.1264 598.496 33.984C597.561 33.0494 597.561 33.0494 596.608 32.096C576.293 31.1543 555.878 32.5313 535.602 33.748C532.79 33.8965 529.978 34.0449 527.08 34.1979C524.409 34.3561 521.738 34.5143 518.986 34.6773C515.371 34.8849 515.371 34.8849 511.683 35.0967C509.802 35.3526 507.922 35.6084 505.984 35.872C504.738 37.1181 503.492 38.3642 502.208 39.648C504.506 39.8816 506.803 40.1153 509.17 40.356C515.826 41.3206 520.861 42.1825 526.752 45.312C526.752 46.5581 526.752 47.8042 526.752 49.088C535.592 49.1244 544.364 48.878 553.191 48.4427C555.984 48.3715 555.984 48.3715 558.833 48.2989C561.414 48.1887 561.414 48.1887 564.047 48.0762C565.446 48.4101 566.846 48.744 568.288 49.088C571.04 53.7762 571.04 53.7762 572.064 58.528C567.698 59.826 567.698 59.826 562.624 60.416C562.001 61.6621 561.378 62.9082 560.736 64.192C559.49 64.192 558.244 64.192 556.96 64.192C556.337 65.4381 555.714 66.6842 555.072 67.968C549.651 67.2305 549.651 67.2305 542.918 65.608C540.701 65.092 538.484 64.5761 536.199 64.0445C530.528 62.304 530.528 62.304 526.752 58.528C520.912 56.8897 515.029 55.6353 509.104 54.339C507.451 53.8523 505.799 53.3655 504.096 52.864C503.473 51.6179 502.85 50.3718 502.208 49.088C495.832 47.547 489.423 46.4214 482.967 45.2678C481.217 44.6593 479.467 44.0509 477.664 43.424C477.664 40.9318 477.664 38.4397 477.664 35.872C475.795 36.8066 475.795 36.8066 473.888 37.76C472.019 38.6946 472.019 38.6946 470.112 39.648C468.866 38.4019 467.62 37.1558 466.336 35.872C464.389 35.249 462.442 34.6259 460.436 33.984C458.645 33.361 456.854 32.7379 455.008 32.096C455.008 30.8499 455.008 29.6038 455.008 28.32C460.66 27.5933 466.327 26.9687 472 26.432C477.187 23.8386 481.013 24.5224 486.816 24.7726Z" fill="#4A7DBD"/>
<path d="M394.592 151.04C399.741 150.481 399.741 150.481 405.883 150.701C409.178 150.818 409.178 150.818 412.539 150.937C414.833 151.049 417.127 151.161 419.49 151.276C422.964 151.378 422.964 151.378 426.507 151.483C439.261 152.021 439.261 152.021 443.68 152.928C443.68 154.797 443.68 156.666 443.68 158.592C447.485 158.169 451.254 157.455 455.008 156.704C458.934 156.173 462.868 155.705 466.808 155.288C468.765 155.064 470.721 154.84 472.737 154.61C474.363 154.678 475.989 154.746 477.664 154.816C479.533 157.62 479.533 157.62 481.44 160.48C481.44 162.349 481.44 164.218 481.44 166.144C489.379 165.684 496.535 164.888 504.096 162.368C510.704 161.424 510.704 161.424 517.312 160.48C519.181 159.857 521.05 159.234 522.976 158.592C523.911 161.396 523.911 161.396 524.864 164.256C524.241 165.502 523.618 166.748 522.976 168.032C516.672 168.405 510.524 168.526 504.217 168.491C501.261 168.496 501.261 168.496 498.246 168.502C491.697 168.509 485.149 168.488 478.601 168.467C474.074 168.465 469.547 168.464 465.021 168.465C455.522 168.462 446.022 168.446 436.523 168.421C424.309 168.389 412.095 168.381 399.881 168.383C390.531 168.382 381.181 168.372 371.831 168.358C367.326 168.352 362.82 168.349 358.315 168.347C352.035 168.343 345.755 168.327 339.474 168.306C337.588 168.307 335.702 168.308 333.759 168.309C329.492 168.289 325.225 168.173 320.96 168.032C320.96 167.409 320.96 166.786 320.96 166.144C323.102 165.91 325.243 165.677 327.45 165.436C339.541 163.78 350.359 159.576 361.788 155.406C369.592 153.065 375.202 152.122 383.264 152.928C385.133 154.174 387.002 155.42 388.928 156.704C390.797 154.835 392.666 152.966 394.592 151.04Z" fill="#477AB5"/>
<path d="M404.032 45.312C408.988 45.43 408.988 45.43 413.472 47.2C413.472 48.4461 413.472 49.6922 413.472 50.976C415.964 51.5991 418.456 52.2221 421.024 52.864C428.93 56.286 428.93 56.286 436.128 60.416C437.063 64.1543 437.063 64.1543 438.016 67.968C434.745 68.3185 434.745 68.3185 431.408 68.676C429.227 69.0654 427.047 69.4548 424.8 69.856C424.98 75.5017 424.98 75.5017 426.688 81.184C425.442 82.4301 424.196 83.6762 422.912 84.96C419.136 84.96 415.36 84.96 411.584 84.96C409.715 86.2061 407.846 87.4522 405.92 88.736C404.051 88.736 402.182 88.736 400.256 88.736C400.174 92.5111 400.18 96.2888 400.256 100.064C395.585 104.735 391.396 105.665 385.152 107.616C383.283 108.551 383.283 108.551 381.376 109.504C380.13 111.996 378.884 114.488 377.6 117.056C374.465 118.342 371.317 119.6 368.16 120.832C366.291 123.324 364.422 125.816 362.496 128.384C356.507 129.8 356.507 129.8 351.168 128.384C350.194 121.776 350.194 121.776 350.696 113.28C350.958 108.25 351.145 103.213 351.168 98.176C349.922 98.176 348.676 98.176 347.392 98.176C346.574 100.921 346.574 100.921 345.74 103.722C345.039 105.63 344.338 107.538 343.616 109.504C339.878 110.439 339.878 110.439 336.064 111.392C336.103 109.601 336.142 107.81 336.182 105.964C336.143 104.017 336.104 102.07 336.064 100.064C334.545 99.8693 333.027 99.6746 331.462 99.474C329.865 99.0457 328.269 98.6173 326.624 98.176C325.09 89.562 325.09 89.562 324.736 81.184C325.359 83.0531 325.982 84.9223 326.624 86.848C329.739 86.848 332.854 86.848 336.064 86.848C335.441 84.3559 334.818 81.8637 334.176 79.296C335.422 79.296 336.668 79.296 337.952 79.296C337.952 80.5421 337.952 81.7882 337.952 83.072C340.444 83.6951 342.936 84.3181 345.504 84.96C346.75 86.2061 347.996 87.4522 349.28 88.736C349.28 91.2282 349.28 93.7203 349.28 96.288C350.526 96.288 351.772 96.288 353.056 96.288C353.251 99.1306 353.445 101.973 353.646 104.902C354.074 107.667 354.503 110.431 354.944 113.28C356.424 113.436 357.903 113.592 359.428 113.752C364.942 111.465 364.942 111.465 370.048 105.728C370.671 108.22 371.294 110.712 371.936 113.28C372.209 111.099 372.481 108.919 372.762 106.672C373.735 104.491 374.709 102.311 375.712 100.064C384.208 99.592 384.208 99.592 392.704 100.064C396.75 94.7997 396.75 94.7997 397.424 89.326C397.735 87.8852 398.047 86.4445 398.368 84.96C399.614 84.96 400.86 84.96 402.144 84.96C401.93 77.3578 401.144 69.8526 400.433 62.2819C400.256 54.752 400.256 54.752 401.775 49.0438C402.52 47.8123 403.265 46.5808 404.032 45.312Z" fill="#558FCA"/>
<path d="M222.784 39.6479C225.276 40.271 227.768 40.894 230.336 41.5359C230.336 43.4051 230.336 45.2742 230.336 47.1999C232.439 46.5769 234.542 45.9539 236.708 45.3119C238.967 45.3119 241.225 45.3119 243.552 45.3119C245.223 50.8669 245.691 56.0543 246.045 61.8393C246.468 63.2387 246.892 64.6381 247.328 66.0799C252.273 65.013 252.273 65.013 256.768 62.3039C255.352 67.7319 255.352 67.7319 252.992 73.6319C246.739 76.7583 242.643 78.0392 236 79.2959C235.377 79.919 234.754 80.542 234.112 81.1839C233.41 84.9077 232.794 88.6478 232.224 92.3939C230.54 103.432 230.54 103.432 228.448 107.616C222.43 106.554 222.43 106.554 217.12 103.84C218.3 99.5919 218.3 99.5919 220.896 94.3999C221.529 88.3398 221.529 88.3398 220.896 83.0719C219.65 83.0719 218.404 83.0719 217.12 83.0719C217.12 86.1871 217.12 89.3023 217.12 92.5119C215.874 92.5119 214.628 92.5119 213.344 92.5119C211.692 86.2579 211.692 86.2579 211.456 79.2959C213.948 77.4268 216.44 75.5577 219.008 73.6319C220.254 73.6319 221.5 73.6319 222.784 73.6319C222.161 72.3859 221.538 71.1398 220.896 69.8559C219.027 69.3497 217.158 68.8435 215.232 68.3219C212.428 67.2122 212.428 67.2122 209.568 66.0799C208.152 61.1239 208.152 61.1239 207.68 56.6399C206.434 56.6399 205.188 56.6399 203.904 56.6399C203.786 52.2739 203.786 52.2739 205.792 47.1999C212.282 43.8959 212.282 43.8959 219.008 41.5359C220.254 40.9129 221.5 40.2899 222.784 39.6479Z" fill="#6191C9"/>
<path d="M303.968 58.528C323.727 57.3296 343.711 58.7282 363.44 59.944C365.727 60.0603 368.015 60.1767 370.371 60.2966C372.504 60.4431 374.636 60.5896 376.833 60.7405C379.715 60.9184 379.715 60.9184 382.656 61.1C384.102 61.4973 385.549 61.8946 387.04 62.304C388.928 69.856 388.928 69.856 388.574 74.93C388.068 76.3708 387.562 77.8115 387.04 79.296C384.548 79.919 382.056 80.5421 379.488 81.184C378.242 80.5609 376.996 79.9379 375.712 79.296C375.712 80.5421 375.712 81.7881 375.712 83.072C374.466 83.072 373.22 83.072 371.936 83.072C371.936 84.3181 371.936 85.5641 371.936 86.848C369.444 86.848 366.952 86.848 364.384 86.848C364.384 89.9632 364.384 93.0784 364.384 96.288C359.664 98.058 359.664 98.058 354.944 98.176C354.944 96.9299 354.944 95.6838 354.944 94.4C353.075 93.7769 351.206 93.1539 349.28 92.512C348.034 90.2145 346.788 87.9171 345.504 85.55C342.47 80.4357 340.035 77.5457 335.142 74.0892C325.064 68.5413 314.778 64.2912 303.968 60.416C303.968 59.7929 303.968 59.1699 303.968 58.528Z" fill="#4783BF"/>
<path d="M385.152 52.864C388.267 52.864 391.382 52.864 394.592 52.864C395.215 54.7331 395.838 56.6023 396.48 58.528C397.726 58.528 398.972 58.528 400.256 58.528C401.318 63.484 401.318 63.484 402.144 69.856C402.533 71.8809 402.923 73.9058 403.324 75.992C403.558 77.7054 403.791 79.4187 404.032 81.184C403.409 82.4301 402.786 83.6762 402.144 84.96C400.898 84.96 399.652 84.96 398.368 84.96C397.716 89.362 397.088 93.7677 396.48 98.176C395.234 99.4221 393.988 100.668 392.704 101.952C390.212 101.796 387.72 101.64 385.152 101.48C381.414 101.714 381.414 101.714 377.6 101.952C374.791 107.389 374.791 107.389 373.824 113.28C371.955 114.215 371.955 114.215 370.048 115.168C369.425 112.676 368.802 110.184 368.16 107.616C365.668 110.108 363.176 112.6 360.608 115.168C360.608 113.922 360.608 112.676 360.608 111.392C356.87 113.261 356.87 113.261 353.056 115.168C352.82 105.964 352.82 105.964 353.159 100.551C353.125 99.1441 353.091 97.7373 353.056 96.288C351.81 96.288 350.564 96.288 349.28 96.288C349.903 95.0419 350.526 93.7959 351.168 92.512C352.414 93.1351 353.66 93.7581 354.944 94.4C354.944 95.6461 354.944 96.8922 354.944 98.176C357.436 96.9299 359.928 95.6839 362.496 94.4C363.734 89.6284 363.734 89.6284 364.384 84.96C365.63 84.337 366.876 83.7139 368.16 83.072C368.16 84.3181 368.16 85.5642 368.16 86.848C369.406 86.848 370.652 86.848 371.936 86.848C371.936 85.6019 371.936 84.3559 371.936 83.072C373.182 83.072 374.428 83.072 375.712 83.072C375.712 81.8259 375.712 80.5799 375.712 79.296C377.581 79.5686 379.45 79.8412 381.376 80.122C384.18 79.7131 384.18 79.7131 387.04 79.296C388.456 70.8799 388.456 70.8799 387.04 62.304C385.171 61.681 383.302 61.0579 381.376 60.416C382.622 57.9239 383.868 55.4317 385.152 52.864Z" fill="#4F8DC8"/>
<path d="M162.368 132.16C167.442 132.632 167.442 132.632 173.696 135.936C178.888 139.83 178.888 139.83 183.136 145.376C185.336 153.128 186.912 159.972 186.912 168.032C180.603 168.601 174.643 168.777 168.327 168.718C165.498 168.719 165.498 168.719 162.613 168.721C158.613 168.716 154.613 168.698 150.613 168.667C144.459 168.622 138.307 168.628 132.153 168.64C128.281 168.63 124.409 168.616 120.537 168.6C118.679 168.602 116.82 168.603 114.906 168.605C110.584 168.559 106.265 168.319 101.952 168.032C101.952 166.786 101.952 165.54 101.952 164.256C110.66 163.872 118.02 164.025 126.496 166.144C126.496 163.652 126.496 161.16 126.496 158.592C131.216 155.878 131.216 155.878 135.936 154.816C135.936 156.685 135.936 158.554 135.936 160.48C137.182 160.48 138.428 160.48 139.712 160.48C140.218 158.299 140.724 156.119 141.246 153.872C141.986 151.691 142.726 149.511 143.488 147.264C146.603 147.264 149.718 147.264 152.928 147.264C152.928 149.133 152.928 151.002 152.928 152.928C154.174 152.928 155.42 152.928 156.704 152.928C157.327 151.059 157.95 149.19 158.592 147.264C159.838 146.641 161.084 146.018 162.368 145.376C162.212 143.078 162.057 140.781 161.896 138.414C162.052 136.35 162.208 134.286 162.368 132.16Z" fill="#6490C6"/>
<path d="M9.98378e-07 139.712C6.71494 139.549 6.71494 139.549 13.216 141.6C13.839 142.846 14.4621 144.092 15.104 145.376C13.2349 147.245 11.3658 149.114 9.44 151.04C14.1 152.602 14.1 152.602 18.88 152.928C18.88 150.436 18.88 147.944 18.88 145.376C21.3722 146.622 23.8643 147.868 26.432 149.152C24.5629 150.087 24.5629 150.087 22.656 151.04C30.0586 153.641 37.5424 155.933 45.076 158.12C46.9013 158.656 48.7266 159.191 50.6073 159.743C51.975 159.986 53.3428 160.229 54.752 160.48C54.752 159.234 54.752 157.988 54.752 156.704C55.9981 156.704 57.2442 156.704 58.528 156.704C59.151 154.835 59.7741 152.966 60.416 151.04C67.8471 152.898 74.2887 155.277 81.184 158.592C81.184 159.838 81.184 161.084 81.184 162.368C83.6762 164.237 86.1683 166.106 88.736 168.032C76.0998 168.729 63.4746 169.244 50.8239 169.588C46.518 169.731 42.2135 169.924 37.9121 170.169C12.6267 171.568 12.6267 171.568 9.98378e-07 168.032C-3.23762 161.536 -3.23762 161.536 -3.599 153.643C-2.85044 145.66 -2.85044 145.66 9.98378e-07 139.712Z" fill="#4A7BB4"/>
<path d="M789.184 64.1919C790.43 64.1919 791.676 64.1919 792.96 64.1919C792.96 65.438 792.96 66.6841 792.96 67.9679C794.206 67.9679 795.452 67.9679 796.736 67.9679C797.359 70.4601 797.982 72.9522 798.624 75.5199C801.116 76.1429 803.608 76.766 806.176 77.4079C806.176 79.277 806.176 81.1461 806.176 83.0719C808.045 83.0719 809.914 83.0719 811.84 83.0719C814.082 88.8539 814.082 88.8539 813.728 94.3999C811.275 94.0884 808.822 93.7769 806.294 93.4559C803.763 93.1444 801.232 92.8329 798.624 92.5119C798.741 94.2253 798.858 95.9386 798.978 97.7039C798.803 100.741 798.803 100.741 798.624 103.84C793.408 106.062 788.32 107.175 782.768 108.294C780.336 108.893 780.336 108.893 777.856 109.504C776.61 110.75 775.364 111.996 774.08 113.28C772.211 112.657 770.342 112.034 768.416 111.392C767.17 108.9 765.924 106.408 764.64 103.84C764.994 98.7659 764.994 98.7659 766.528 94.3999C768.397 93.7769 770.266 93.1538 772.192 92.5119C772.192 89.3967 772.192 86.2815 772.192 83.0719C774.684 82.4489 777.176 81.8258 779.744 81.1839C780.99 82.43 782.236 83.6761 783.52 84.9599C784.766 84.3369 786.012 83.7138 787.296 83.0719C786.673 81.2028 786.05 79.3337 785.408 77.4079C786.654 76.1618 787.9 74.9157 789.184 73.6319C789.184 70.5167 789.184 67.4015 789.184 64.1919Z" fill="#5585C0"/>
<path d="M843.936 137.824C847.051 137.824 850.166 137.824 853.376 137.824C853.376 139.07 853.376 140.316 853.376 141.6C856.517 142.873 859.664 144.13 862.816 145.376C864.685 147.245 866.554 149.114 868.48 151.04C868.48 152.909 868.48 154.778 868.48 156.704C874.628 158.484 874.628 158.484 881.696 158.592C884.848 157.346 887.995 156.089 891.136 154.816C893.628 156.062 896.12 157.308 898.688 158.592C898.688 156.1 898.688 153.608 898.688 151.04C899.934 151.04 901.18 151.04 902.464 151.04C903.36 152.637 904.255 154.233 905.178 155.878C906.151 157.397 907.125 158.915 908.128 160.48C914.237 158.592 914.237 158.592 921.344 154.816C922.59 155.439 923.836 156.062 925.12 156.704C925.12 157.95 925.12 159.196 925.12 160.48C927.612 160.48 930.104 160.48 932.672 160.48C933.607 163.284 933.607 163.284 934.56 166.144C929.695 166.757 929.695 166.757 922.62 166.631C920.092 166.604 917.565 166.577 914.961 166.55C912.278 166.494 909.594 166.438 906.83 166.38C901.591 166.298 896.353 166.224 891.114 166.159C888.768 166.113 886.423 166.067 884.007 166.02C877.607 165.924 877.607 165.924 870.368 168.032C867.876 166.786 865.384 165.54 862.816 164.256C862.816 163.01 862.816 161.764 862.816 160.48C860.947 161.415 860.947 161.415 859.04 162.368C859.663 163.614 860.286 164.86 860.928 166.144C853.451 165.521 845.975 164.898 838.272 164.256C840.141 162.387 842.01 160.518 843.936 158.592C844.559 156.723 845.182 154.854 845.824 152.928C847.07 152.928 848.316 152.928 849.6 152.928C849.277 147.213 849.277 147.213 847.712 141.6C846.466 141.6 845.22 141.6 843.936 141.6C843.936 140.354 843.936 139.108 843.936 137.824Z" fill="#4D7BB6"/>
<path d="M33.984 41.5359C34.6071 42.782 35.2301 44.028 35.872 45.3119C37.858 45.5845 39.8439 45.857 41.89 46.1379C43.6423 46.4883 45.3946 46.8388 47.2 47.1999C45.3309 50.0036 45.3309 50.0036 43.424 52.8639C40.9319 52.8639 38.4397 52.8639 35.872 52.8639C35.872 55.356 35.872 57.8482 35.872 60.4159C34.6259 60.4159 33.3799 60.4159 32.096 60.4159C31.473 62.908 30.8499 65.4002 30.208 67.9679C23.836 72.9239 23.836 72.9239 16.992 77.4079C15.1229 78.654 13.2538 79.9 11.328 81.1839C11.0554 82.8194 10.7829 84.4548 10.502 86.1399C9.14925 94.2565 5.84251 100.448 1.88801 107.616C1.26497 107.616 0.641935 107.616 1.46512e-05 107.616C-0.242525 100.402 -0.349729 93.2369 -0.353985 86.0219C-0.377106 83.9666 -0.400227 81.9113 -0.424048 79.7937C-0.427698 77.8406 -0.431349 75.8875 -0.43511 73.8753C-0.442868 72.0659 -0.450626 70.2566 -0.458618 68.3924C-0.307269 67.0062 -0.155921 65.6201 1.46512e-05 64.1919C1.24609 63.5688 2.49217 62.9458 3.77601 62.3039C4.39905 60.4348 5.02209 58.5656 5.66401 56.6399C7.53313 57.2629 9.40225 57.886 11.328 58.5279C11.6785 56.2499 11.6785 56.2499 12.036 53.9259C12.4254 52.3293 12.8148 50.7328 13.216 49.0879C16.3312 49.0879 19.4464 49.0879 22.656 49.0879C23.954 53.8079 23.954 53.8079 24.544 58.5279C25.7901 58.5279 27.0362 58.5279 28.32 58.5279C28.32 56.0357 28.32 53.5436 28.32 50.9759C29.5661 50.3528 30.8122 49.7298 32.096 49.0879C32.7191 46.5957 33.3421 44.1036 33.984 41.5359Z" fill="#5C8BC3"/>
<path d="M400.256 141.6C401.502 142.223 402.748 142.846 404.032 143.488C404.032 144.111 404.032 144.734 404.032 145.376C406.836 145.298 409.639 145.22 412.528 145.14C415.332 145.218 418.135 145.296 421.024 145.376C421.024 147.245 421.024 149.114 421.024 151.04C422.27 151.04 423.516 151.04 424.8 151.04C424.8 149.794 424.8 148.548 424.8 147.264C427.292 146.641 429.784 146.018 432.352 145.376C433.598 144.753 434.844 144.13 436.128 143.488C442.736 143.016 442.736 143.016 449.344 143.488C450.59 145.357 451.836 147.226 453.12 149.152C452.497 150.398 451.874 151.644 451.232 152.928C457.072 153.62 457.072 153.62 464.212 153.518C466.66 153.55 469.109 153.581 471.631 153.614C473.622 153.388 475.613 153.161 477.664 152.928C478.287 151.059 478.91 149.19 479.552 147.264C480.798 147.264 482.044 147.264 483.328 147.264C484.263 150.068 484.263 150.068 485.216 152.928C488.331 152.928 491.446 152.928 494.656 152.928C495.591 154.797 495.591 154.797 496.544 156.704C495.921 157.95 495.298 159.196 494.656 160.48C496.525 161.103 498.394 161.726 500.32 162.368C499.697 163.614 499.074 164.86 498.432 166.144C489.818 166.734 489.818 166.734 481.44 166.144C481.44 164.275 481.44 162.406 481.44 160.48C477.186 158.183 477.186 158.183 470.112 156.704C465.07 157.273 460.035 157.907 455.008 158.592C448.4 159.064 448.4 159.064 443.68 158.592C443.68 156.723 443.68 154.854 443.68 152.928C439.664 153.292 435.649 153.695 431.659 154.272C422.072 155.321 412.477 154.057 402.904 153.194C398.884 152.901 394.846 152.888 390.816 152.928C390.193 154.797 389.57 156.666 388.928 158.592C387.682 157.969 386.436 157.346 385.152 156.704C382.011 155.433 378.864 154.172 375.712 152.928C380.792 149.541 385.314 147.315 390.934 145.022C393.42 143.989 393.42 143.989 395.956 142.935C397.375 142.494 398.794 142.054 400.256 141.6Z" fill="#5B8DC5"/>
<path d="M551.296 115.168C558.376 114.342 558.376 114.342 564.512 115.168C564.512 116.414 564.512 117.66 564.512 118.944C562.02 118.944 559.528 118.944 556.96 118.944C556.96 120.19 556.96 121.436 556.96 122.72C555.714 123.966 554.468 125.212 553.184 126.496C552.555 134.127 552.555 134.127 553.184 141.6C554.43 142.223 555.676 142.846 556.96 143.488C557.648 146.622 558.281 149.77 558.848 152.928C559.471 152.928 560.094 152.928 560.736 152.928C560.736 156.043 560.736 159.158 560.736 162.368C556.948 161.816 553.171 161.186 549.408 160.48C549.408 162.972 549.408 165.464 549.408 168.032C543.692 169.035 543.692 169.035 536.31 168.976C533.879 168.996 531.447 169.015 528.942 169.035C526.973 168.704 525.005 168.373 522.976 168.032C522.353 165.54 521.73 163.048 521.088 160.48C517.9 161.631 514.759 162.913 511.648 164.256C506.22 164.02 506.22 164.02 502.208 162.368C502.831 159.876 503.454 157.384 504.096 154.816C507.249 155.413 510.395 156.047 513.536 156.704C516.028 154.835 518.52 152.966 521.088 151.04C521.711 152.286 522.334 153.532 522.976 154.816C524.222 154.193 525.468 153.57 526.752 152.928C526.752 151.059 526.752 149.19 526.752 147.264C524.883 146.641 523.014 146.018 521.088 145.376C522.957 143.507 524.826 141.638 526.752 139.712C527.998 140.335 529.244 140.958 530.528 141.6C529.905 143.469 529.282 145.338 528.64 147.264C529.886 147.264 531.132 147.264 532.416 147.264C532.416 149.133 532.416 151.002 532.416 152.928C533.662 152.928 534.908 152.928 536.192 152.928C536.192 155.42 536.192 157.912 536.192 160.48C540.753 160.422 540.753 160.422 545.632 158.592C547.501 157.346 549.37 156.1 551.296 154.816C550.4 152.441 549.505 150.065 548.582 147.618C547.609 145.009 546.635 142.4 545.632 139.712C547.402 134.048 547.402 134.048 549.408 130.272C548.162 130.272 546.916 130.272 545.632 130.272C545.009 132.141 544.386 134.01 543.744 135.936C543.272 130.862 543.272 130.862 543.744 124.608C546.694 119.18 546.694 119.18 551.296 115.168Z" fill="#588AC3"/>
<path d="M509.76 128.384C513.362 134.966 515.424 139.725 515.424 147.264C516.67 147.887 517.916 148.51 519.2 149.152C516.708 149.152 514.216 149.152 511.648 149.152C511.025 151.021 510.402 152.89 509.76 154.816C507.891 154.816 506.022 154.816 504.096 154.816C503.473 157.308 502.85 159.8 502.208 162.368C499.716 161.745 497.224 161.122 494.656 160.48C494.033 158.611 493.41 156.742 492.768 154.816C491.171 154.505 489.575 154.193 487.93 153.872C486.411 153.561 484.893 153.249 483.328 152.928C483.328 151.059 483.328 149.19 483.328 147.264C480.836 146.641 478.344 146.018 475.776 145.376C476.399 144.753 477.022 144.13 477.664 143.488C477.664 140.373 477.664 137.258 477.664 134.048C480.156 134.048 482.648 134.048 485.216 134.048C487.669 133.113 490.122 132.179 492.65 131.216C500.32 128.384 500.32 128.384 509.76 128.384Z" fill="#6A96CC"/>
<path d="M224.672 109.504C225.295 109.504 225.918 109.504 226.56 109.504C226.997 119.265 227.195 127.114 222.784 135.936C222.161 137.805 221.538 139.674 220.896 141.6C219.027 142.846 217.158 144.092 215.232 145.376C213.986 147.868 212.74 150.36 211.456 152.928C208.341 152.928 205.226 152.928 202.016 152.928C200.147 150.436 198.278 147.944 196.352 145.376C196.352 142.884 196.352 140.392 196.352 137.824C197.598 137.824 198.844 137.824 200.128 137.824C199.602 134.611 199.602 134.611 199.066 131.334C198.657 128.005 198.657 128.005 198.24 124.608C200.109 123.985 201.978 123.362 203.904 122.72C203.904 120.851 203.904 118.982 203.904 117.056C209.568 114.814 209.568 114.814 215.232 115.168C215.704 122.602 215.704 122.602 215.232 130.272C216.478 130.272 217.724 130.272 219.008 130.272C219.655 124.61 220.284 118.946 220.896 113.28C222.142 112.034 223.388 110.788 224.672 109.504Z" fill="#5287C1"/>
<path d="M134.048 50.9761C135.294 50.9761 136.54 50.9761 137.824 50.9761C137.824 53.4682 137.824 55.9604 137.824 58.5281C139.693 59.1511 141.562 59.7742 143.488 60.4161C142.865 62.2852 142.242 64.1543 141.6 66.0801C142.846 66.0801 144.092 66.0801 145.376 66.0801C145.064 68.066 144.753 70.052 144.432 72.0981C143.142 79.0775 143.142 79.0775 144.55 85.0781C145.446 86.2852 146.341 87.4924 147.264 88.7361C151.062 87.5446 154.842 86.2935 158.592 84.9601C158.592 89.4441 158.592 89.4441 156.704 94.4001C155.458 94.4001 154.212 94.4001 152.928 94.4001C153.551 95.6462 154.174 96.8922 154.816 98.1761C156.685 98.7991 158.554 99.4222 160.48 100.064C159.865 103.214 159.237 106.361 158.592 109.504C160.461 109.504 162.33 109.504 164.256 109.504C161.226 121.622 161.226 121.622 158.592 126.496C153.636 128.738 153.636 128.738 149.152 128.384C148.798 122.838 148.798 122.838 149.152 117.056C147.906 117.056 146.66 117.056 145.376 117.056C145.804 115.187 146.233 113.318 146.674 111.392C146.869 109.523 147.063 107.654 147.264 105.728C144.149 105.728 141.034 105.728 137.824 105.728C138.447 104.482 139.07 103.236 139.712 101.952C141.581 101.329 143.45 100.706 145.376 100.064C143.344 92.8511 141.183 86.0142 137.824 79.2961C137.863 77.0376 137.902 74.779 137.942 72.4521C137.903 70.3493 137.864 68.2466 137.824 66.0801C136.578 66.0801 135.332 66.0801 134.048 66.0801C133.576 58.5281 133.576 58.5281 134.048 50.9761Z" fill="#5F8DC4"/>
<path d="M809.952 62.304C813.067 62.304 816.182 62.304 819.392 62.304C821.634 67.85 821.634 67.85 823.168 73.632C824.414 74.255 825.66 74.878 826.944 75.52C826.944 74.2739 826.944 73.0278 826.944 71.744C831.31 70.446 831.31 70.446 836.384 69.856C838.253 70.479 840.122 71.102 842.048 71.744C842.671 73.6131 843.294 75.4822 843.936 77.408C842.067 77.408 840.198 77.408 838.272 77.408C836.939 83.0549 835.679 88.7197 834.496 94.4C833.25 94.4 832.004 94.4 830.72 94.4C830.72 96.8921 830.72 99.3843 830.72 101.952C827.605 101.952 824.49 101.952 821.28 101.952C817.976 98.058 817.976 98.058 815.616 92.512C815.344 90.2145 815.071 87.917 814.79 85.55C814.44 83.4861 814.089 81.4223 813.728 79.296C811.236 78.0499 808.744 76.8038 806.176 75.52C805.553 73.6508 804.93 71.7817 804.288 69.856C804.911 68.6099 805.534 67.3638 806.176 66.08C807.422 66.08 808.668 66.08 809.952 66.08C809.952 64.8339 809.952 63.5878 809.952 62.304Z" fill="#6590C8"/>
<path d="M55.814 41.8901C57.9557 42.3963 60.0974 42.9025 62.304 43.4241C62.927 45.9163 63.5501 48.4084 64.192 50.9761C61.7388 50.9372 59.2856 50.8982 56.758 50.8581C54.2269 50.8971 51.6958 50.936 49.088 50.9761C49.088 54.0913 49.088 57.2065 49.088 60.4161C50.3341 61.0391 51.5802 61.6622 52.864 62.3041C53.572 69.5021 53.572 69.5021 52.864 77.4081C49.324 82.3641 49.324 82.3641 45.312 84.9601C44.0659 83.714 42.8198 82.4679 41.536 81.1841C37.7978 83.0532 37.7978 83.0532 33.984 84.9601C31.4918 84.9601 28.9997 84.9601 26.432 84.9601C27.5909 81.1523 28.8598 77.3771 30.208 73.6321C28.9619 72.386 27.7158 71.1399 26.432 69.8561C28.792 64.9001 28.792 64.9001 32.096 60.4161C33.3421 60.4161 34.5882 60.4161 35.872 60.4161C35.872 57.9239 35.872 55.4318 35.872 52.8641C40.2338 51.4621 44.6432 50.1993 49.088 49.0881C49.088 47.842 49.088 46.5959 49.088 45.3121C47.8419 44.6891 46.5958 44.066 45.312 43.4241C49.088 41.5361 49.088 41.5361 55.814 41.8901Z" fill="#4C7FB9"/>
<path d="M573.518 33.6762C575.727 33.6074 577.937 33.5387 580.213 33.4678C582.191 33.3866 584.168 33.3054 586.206 33.2217C587.77 33.4733 589.333 33.7249 590.944 33.9841C592.19 36.4762 593.436 38.9684 594.72 41.5361C582.951 45.3938 571.312 45.9765 558.966 45.9021C557.268 45.8996 555.57 45.8972 553.821 45.8947C536.88 45.6569 520.673 43.0484 504.096 39.6481C511.72 35.836 515.205 35.3248 523.5 35.0903C525.835 35.0173 528.17 34.9443 530.576 34.8691C534.232 34.7815 534.232 34.7815 537.962 34.6921C540.334 34.6191 542.705 34.546 545.149 34.4708C549.891 34.3337 554.634 34.2198 559.378 34.1297C564.093 34.0319 568.806 33.88 573.518 33.6762Z" fill="#5F90CB"/>
<path d="M745.76 143.488C745.76 144.111 745.76 144.734 745.76 145.376C742.645 145.376 739.53 145.376 736.32 145.376C736.943 147.245 737.566 149.114 738.208 151.04C737.585 152.286 736.962 153.532 736.32 154.816C742.74 157.482 742.74 157.482 749.536 158.592C749.536 156.723 749.536 154.854 749.536 152.928C751.366 153.317 753.196 153.707 755.082 154.108C756.99 154.342 758.898 154.575 760.864 154.816C761.568 151.685 762.199 148.537 762.752 145.376C767.875 145.639 771.399 146.867 775.968 149.152C776.591 147.906 777.214 146.66 777.856 145.376C780.348 145.999 782.84 146.622 785.408 147.264C786.031 149.756 786.654 152.248 787.296 154.816C779.154 158.238 779.154 158.238 770.304 160.48C769.058 159.857 767.812 159.234 766.528 158.592C766.528 157.346 766.528 156.1 766.528 154.816C760.739 157.081 760.739 157.081 755.2 160.48C755.2 161.726 755.2 162.972 755.2 164.256C757.692 164.879 760.184 165.502 762.752 166.144C762.752 166.767 762.752 167.39 762.752 168.032C757.802 168.325 752.842 168.452 747.884 168.504C745.124 168.553 742.364 168.601 739.521 168.651C737.218 168.447 734.916 168.243 732.544 168.032C728.768 162.368 728.768 162.368 727.116 153.636C726.999 149.547 726.999 149.547 726.88 145.376C733.66 143.681 738.847 143.174 745.76 143.488Z" fill="#5787C0"/>
<path d="M387.04 62.3039C389.318 61.9535 389.318 61.9535 391.642 61.5959C393.239 62.4526 394.835 63.3093 396.48 64.1919C399.253 70.3317 398.339 76.7142 397.896 83.3079C397.429 86.3453 396.961 89.3826 396.48 92.5119C394.611 94.3811 392.742 96.2502 390.816 98.1759C384.798 99.7099 384.798 99.7099 379.488 100.064C379.488 98.8179 379.488 97.5718 379.488 96.2879C374.024 94.8527 374.024 94.8527 368.16 94.3999C366.914 95.023 365.668 95.646 364.384 96.2879C362.85 91.9219 362.85 91.9219 362.496 86.8479C364.365 85.6019 366.234 84.3558 368.16 83.0719C368.16 84.318 368.16 85.5641 368.16 86.8479C369.406 86.8479 370.652 86.8479 371.936 86.8479C371.936 85.6019 371.936 84.3558 371.936 83.0719C373.182 83.0719 374.428 83.0719 375.712 83.0719C375.712 81.8259 375.712 80.5798 375.712 79.2959C377.581 79.5685 379.45 79.8411 381.376 80.1219C384.18 79.7131 384.18 79.7131 387.04 79.2959C387.118 73.6325 387.12 67.9674 387.04 62.3039ZM360.608 94.3999C361.854 95.646 363.1 96.8921 364.384 98.1759C360.844 102.188 360.844 102.188 356.832 105.728C356.209 103.236 355.586 100.744 354.944 98.1759C356.813 96.9299 358.682 95.6838 360.608 94.3999Z" fill="#4A8AC5"/>
<path d="M347.392 98.176C348.638 98.176 349.884 98.176 351.168 98.176C351.736 104.784 351.736 104.784 351.758 113.28C351.79 116.084 351.821 118.887 351.854 121.776C351.514 125.047 351.514 125.047 351.168 128.384C349.299 128.384 347.43 128.384 345.504 128.384C345.27 130.136 345.037 131.889 344.796 133.694C344.407 135.68 344.017 137.666 343.616 139.712C338.778 143.252 338.778 143.252 334.176 145.376C334.176 142.884 334.176 140.392 334.176 137.824C332.93 137.824 331.684 137.824 330.4 137.824C328.866 132.986 328.866 132.986 328.512 126.496C330.636 119.534 330.636 119.534 334.176 113.28C337.275 111.315 340.42 109.419 343.616 107.616C345.863 102.709 345.863 102.709 347.392 98.176Z" fill="#6293CA"/>
<path d="M162.368 132.16C167.796 132.986 167.796 132.986 173.696 135.936C174.942 137.182 176.188 138.428 177.472 139.712C175.914 139.712 174.357 139.712 172.752 139.712C171.194 140.335 169.637 140.958 168.032 141.6C167.56 149.152 167.56 149.152 168.032 156.704C166.786 157.327 165.54 157.95 164.256 158.592C162.309 158.203 160.362 157.813 158.356 157.412C156.565 157.178 154.774 156.945 152.928 156.704C152.928 158.573 152.928 160.442 152.928 162.368C151.37 162.017 149.813 161.667 148.208 161.306C145.872 160.897 145.872 160.897 143.488 160.48C143.488 162.972 143.488 165.464 143.488 168.032C136.363 168.714 129.837 168.906 122.72 168.74C120.739 168.737 118.758 168.735 116.717 168.733C111.79 168.675 106.867 168.375 101.952 168.032C101.952 166.786 101.952 165.54 101.952 164.256C110.66 163.872 118.02 164.025 126.496 166.144C126.496 163.652 126.496 161.16 126.496 158.592C131.216 155.878 131.216 155.878 135.936 154.816C135.936 156.685 135.936 158.554 135.936 160.48C137.182 160.48 138.428 160.48 139.712 160.48C140.218 158.299 140.724 156.119 141.246 153.872C141.986 151.691 142.726 149.511 143.488 147.264C146.603 147.264 149.718 147.264 152.928 147.264C152.928 149.133 152.928 151.002 152.928 152.928C154.174 152.928 155.42 152.928 156.704 152.928C157.327 151.059 157.95 149.19 158.592 147.264C159.838 146.641 161.084 146.018 162.368 145.376C162.212 143.078 162.057 140.781 161.896 138.414C162.052 136.35 162.208 134.286 162.368 132.16Z" fill="#5E8DC3"/>
<path d="M188.8 66.08C193.277 65.195 193.277 65.195 199.066 65.136C200.972 65.0776 202.877 65.0192 204.841 64.959C206.401 65.3289 207.961 65.6988 209.568 66.08C211.64 70.859 211.64 70.859 211.456 75.52C208.964 75.52 206.472 75.52 203.904 75.52C202.96 81.184 202.96 81.184 203.904 86.848C205.15 86.848 206.396 86.848 207.68 86.848C208.115 91.1919 208.115 91.1919 208.034 96.878C208.016 99.6707 208.016 99.6707 207.997 102.52C207.68 107.616 207.68 107.616 205.792 113.28C200.246 113.044 200.246 113.044 194.464 111.392C193.218 109.523 191.972 107.654 190.688 105.728C191.934 103.236 193.18 100.744 194.464 98.176C195.71 98.176 196.956 98.176 198.24 98.176C197.914 93.396 197.914 93.396 196.352 88.736C195.106 88.736 193.86 88.736 192.576 88.736C193.277 85.9323 193.978 83.1286 194.7 80.24C195.245 77.4363 195.79 74.6326 196.352 71.744C193.86 71.744 191.368 71.744 188.8 71.744C188.8 69.8749 188.8 68.0057 188.8 66.08Z" fill="#4F84C0"/>
<path d="M522.976 94.3999C532.416 94.3999 532.416 94.3999 539.968 98.1759C545.766 103.549 550.306 108.814 555.072 115.168C550.824 120.006 550.824 120.006 545.632 124.608C545.009 126.477 544.386 128.346 543.744 130.272C541.875 129.649 540.006 129.026 538.08 128.384C536.428 123.664 536.428 123.664 536.192 118.944C538.061 118.321 539.93 117.698 541.856 117.056C540.61 114.564 539.364 112.072 538.08 109.504C538.703 111.373 539.326 113.242 539.968 115.168C536.23 117.037 536.23 117.037 532.416 118.944C529.924 117.698 527.432 116.452 524.864 115.168C520.262 107.734 520.262 107.734 517.312 100.064C519.181 98.1948 521.05 96.3257 522.976 94.3999Z" fill="#5B92CB"/>
<path d="M609.824 33.9839C609.824 34.6069 609.824 35.23 609.824 35.8719C603.334 36.1079 603.334 36.1079 596.608 35.8719C595.673 34.9373 595.673 34.9373 594.72 33.9839C591.096 34.1159 587.477 34.3839 583.864 34.6919C568.338 35.8537 552.814 36.4208 537.254 36.9339C534.756 37.0163 532.259 37.0988 529.685 37.1837C523.673 37.3793 517.661 37.5716 511.648 37.7599C529.151 42.1464 545.31 44.1993 563.332 43.7779C565.464 43.7523 567.596 43.7268 569.793 43.7005C574.955 43.6348 580.118 43.5333 585.28 43.4239C578.985 47.6207 576.174 47.8819 568.76 48.3799C539.96 50.1657 539.96 50.1657 526.752 49.0879C526.752 47.8418 526.752 46.5957 526.752 45.3119C520.907 43.6681 515.23 43.2429 509.17 42.7159C506.873 42.3265 504.575 41.9371 502.208 41.5359C502.208 39.6668 502.208 37.7977 502.208 35.8719C511.711 31.1202 525.149 32.5885 535.602 31.9779C538.319 31.8063 541.037 31.6347 543.836 31.458C593.714 28.4712 593.713 28.4712 609.824 33.9839Z" fill="#5185C4"/>
<path d="M536.192 130.272C542.8 129.092 542.8 129.092 549.408 130.272C549.998 137.116 549.998 137.116 549.408 145.376C550.265 147.44 551.121 149.504 552.004 151.63C552.393 153.304 552.783 154.979 553.184 156.704C548.11 160.362 548.11 160.362 541.856 162.368C539.987 161.745 538.118 161.122 536.192 160.48C536.192 157.988 536.192 155.496 536.192 152.928C534.946 152.928 533.7 152.928 532.416 152.928C532.416 151.059 532.416 149.19 532.416 147.264C531.17 147.264 529.924 147.264 528.64 147.264C528.017 145.395 527.394 143.526 526.752 141.6C524.883 142.223 523.014 142.846 521.088 143.488C521.711 141.619 522.334 139.75 522.976 137.824C526.091 137.824 529.206 137.824 532.416 137.824C532.416 136.578 532.416 135.332 532.416 134.048C533.662 134.048 534.908 134.048 536.192 134.048C536.192 132.802 536.192 131.556 536.192 130.272Z" fill="#4C80BA"/>
<path d="M194.464 28.3201C202.681 27.3713 210.979 27.6207 219.244 27.6121C221.593 27.5659 223.941 27.5196 226.361 27.472C228.573 27.4647 230.785 27.4574 233.065 27.4498C236.146 27.4266 236.146 27.4266 239.29 27.4028C241.4 27.8569 241.4 27.8569 243.552 28.3201C242.929 30.8123 242.306 33.3044 241.664 35.8721C236.573 38.4178 231.719 38.8253 226.088 39.6481C221.84 40.2746 217.592 40.9039 213.344 41.5361C211.212 41.8087 209.08 42.0813 206.883 42.3621C205.277 42.7126 203.671 43.063 202.016 43.4241C202.016 44.6702 202.016 45.9163 202.016 47.2001C196.116 46.8461 196.116 46.8461 190.688 45.3121C191.934 43.443 193.18 41.5739 194.464 39.6481C195.71 39.6481 196.956 39.6481 198.24 39.6481C198.24 38.402 198.24 37.1559 198.24 35.8721C200.732 36.4951 203.224 37.1182 205.792 37.7601C205.169 35.891 204.546 34.0219 203.904 32.0961C200.129 32.0206 196.351 32.014 192.576 32.0961C193.199 30.85 193.822 29.6039 194.464 28.3201Z" fill="#4A7CBB"/>
<path d="M587.168 124.608C588.414 125.231 589.66 125.854 590.944 126.496C592.36 130.272 592.36 130.272 592.832 135.936C591.694 141.625 590.444 147.294 589.056 152.928C589.056 154.174 589.056 155.42 589.056 156.704C586.564 156.704 584.072 156.704 581.504 156.704C581.504 155.458 581.504 154.212 581.504 152.928C579.635 152.305 577.766 151.682 575.84 151.04C575.84 149.794 575.84 148.548 575.84 147.264C577.086 146.641 578.332 146.018 579.616 145.376C579.616 144.13 579.616 142.884 579.616 141.6C577.124 142.223 574.632 142.846 572.064 143.488C572.064 144.734 572.064 145.98 572.064 147.264C568.326 149.133 568.326 149.133 564.512 151.04C563.889 149.171 563.266 147.302 562.624 145.376C566.4 139.712 570.176 134.048 573.952 128.384C575.821 129.007 577.69 129.63 579.616 130.272C578.993 131.518 578.37 132.764 577.728 134.048C579.208 132.451 580.687 130.855 582.212 129.21C584.665 126.932 584.665 126.932 587.168 124.608Z" fill="#5F8DC4"/>
<path d="M154.816 130.272C156.685 130.895 158.554 131.518 160.48 132.16C160.48 133.406 160.48 134.652 160.48 135.936C161.726 135.936 162.972 135.936 164.256 135.936C164.256 139.051 164.256 142.166 164.256 145.376C160.716 149.742 160.716 149.742 156.704 152.928C155.458 152.928 154.212 152.928 152.928 152.928C152.928 151.059 152.928 149.19 152.928 147.264C148.494 148.417 144.093 149.698 139.712 151.04C133.222 151.63 133.222 151.63 128.384 151.04C128.384 145.376 128.384 145.376 130.272 139.712C133.387 139.712 136.502 139.712 139.712 139.712C139.712 140.958 139.712 142.204 139.712 143.488C140.958 143.488 142.204 143.488 143.488 143.488C144.033 142.008 144.578 140.529 145.14 139.004C145.841 137.368 146.542 135.733 147.264 134.048C149.756 132.802 152.248 131.556 154.816 130.272Z" fill="#5486BE"/>
<path d="M273.76 56.6399C276.91 57.8898 280.056 59.1505 283.2 60.4159C286.46 60.6312 289.727 60.7458 292.994 60.7699C299.495 61.2374 303.632 62.1287 309.448 65.158C314.204 68.4132 318.653 71.5663 322.848 75.5199C323.471 77.389 324.094 79.2581 324.736 81.1839C323.49 83.6761 322.244 86.1682 320.96 88.7359C319.714 88.7359 318.468 88.7359 317.184 88.7359C317.262 86.9057 317.34 85.0755 317.42 83.1899C317.342 81.2818 317.264 79.3738 317.184 77.4079C314.692 76.7849 312.2 76.1618 309.632 75.5199C309.632 74.2738 309.632 73.0277 309.632 71.7439C307.14 71.7439 304.648 71.7439 302.08 71.7439C300.211 74.5476 300.211 74.5476 298.304 77.4079C298.148 75.8503 297.992 74.2927 297.832 72.6879C297.365 71.1303 296.897 69.5727 296.416 67.9679C293.924 67.9679 291.432 67.9679 288.864 67.9679C287.51 71.0746 286.252 74.2251 285.088 77.4079C283.219 78.0309 281.35 78.654 279.424 79.2959C277.536 71.7439 277.536 71.7439 278.716 65.6079C278.95 63.8945 279.183 62.1812 279.424 60.4159C277.555 60.4159 275.686 60.4159 273.76 60.4159C273.76 59.1698 273.76 57.9237 273.76 56.6399Z" fill="#558DC8"/>
<path d="M930.784 88.736C934.019 87.7613 934.019 87.7613 937.318 86.7668C940.626 87.7416 940.626 87.7416 944 88.736C946.108 95.9362 945.572 103.126 945.298 110.566C945.302 112.653 945.305 114.74 945.309 116.89C945.202 122.845 945.202 122.845 944 132.16C941.508 131.537 939.016 130.914 936.448 130.272C936.448 127.157 936.448 124.042 936.448 120.832C935.864 119.196 935.28 117.561 934.678 115.876C932.825 109.99 931.588 104.504 930.666 98.412C930.372 96.5867 930.077 94.7613 929.774 92.8807C930.107 91.513 930.441 90.1452 930.784 88.736Z" fill="#6590C8"/>
<path d="M479.552 156.704C479.786 159.157 479.786 159.157 480.024 161.66C480.491 163.14 480.959 164.619 481.44 166.144C489.518 165.913 496.427 164.924 504.096 162.368C508.501 161.739 512.907 161.109 517.312 160.48C519.181 159.857 521.05 159.234 522.976 158.592C523.911 161.396 523.911 161.396 524.864 164.256C524.241 165.502 523.618 166.748 522.976 168.032C517.825 168.491 517.825 168.491 511.014 168.467C508.575 168.463 506.137 168.46 503.624 168.456C501.054 168.433 498.484 168.41 495.836 168.386C493.281 168.385 490.725 168.384 488.092 168.382C469.018 168.297 469.018 168.297 462.56 166.144C462.56 164.898 462.56 163.652 462.56 162.368C458.198 160.966 453.789 159.703 449.344 158.592C458.725 155.465 470.134 152.709 479.552 156.704Z" fill="#4A7EB8"/>
<path d="M400.256 141.6C401.502 142.223 402.748 142.846 404.032 143.488C404.032 144.111 404.032 144.734 404.032 145.376C406.836 145.298 409.639 145.22 412.528 145.14C415.332 145.218 418.135 145.296 421.024 145.376C421.024 147.245 421.024 149.114 421.024 151.04C428.544 150.867 428.544 150.867 436.128 149.152C436.751 147.906 437.374 146.66 438.016 145.376C440.508 145.376 443 145.376 445.568 145.376C447.22 151.984 447.22 151.984 447.456 158.592C446.21 158.592 444.964 158.592 443.68 158.592C443.68 156.723 443.68 154.854 443.68 152.928C439.664 153.292 435.649 153.695 431.659 154.272C422.072 155.321 412.477 154.057 402.904 153.194C398.884 152.901 394.846 152.888 390.816 152.928C390.193 154.797 389.57 156.666 388.928 158.592C387.682 157.969 386.436 157.346 385.152 156.704C382.011 155.433 378.864 154.172 375.712 152.928C380.792 149.541 385.314 147.315 390.934 145.022C393.42 143.989 393.42 143.989 395.956 142.935C397.375 142.494 398.794 142.054 400.256 141.6Z" fill="#5689C3"/>
<path d="M315.296 58.528C329.295 57.9896 341.331 59.0799 354.944 62.304C357.475 62.8492 360.006 63.3943 362.614 63.956C364.444 64.6569 366.274 65.3579 368.16 66.08C368.783 68.5722 369.406 71.0643 370.048 73.632C364.377 76.3755 364.377 76.3755 356.832 77.408C350.29 75.0185 350.29 75.0185 343.734 71.272C334.123 66.0406 325.967 62.5503 315.296 60.416C315.296 59.793 315.296 59.1699 315.296 58.528Z" fill="#4479B7"/>
<path d="M923.232 135.936C925.724 137.182 928.216 138.428 930.784 139.712C932.497 140.335 934.211 140.958 935.976 141.6C938.079 142.535 938.079 142.535 940.224 143.488C940.224 144.734 940.224 145.98 940.224 147.264C941.47 147.264 942.716 147.264 944 147.264C945.885 152.808 946.295 157.448 946.189 163.3C945.106 165.642 945.106 165.642 944 168.032C933.18 171.139 922.211 170.124 911.078 169.566C907.911 169.494 904.743 169.431 901.575 169.378C885.396 168.935 885.396 168.935 877.92 168.032C877.297 166.786 876.674 165.54 876.032 164.256C881.047 163.947 881.047 163.947 888.304 164.153C892.159 164.222 892.159 164.222 896.092 164.293C901.599 164.426 907.106 164.573 912.612 164.735C916.467 164.797 916.467 164.797 920.4 164.861C922.795 164.924 925.19 164.988 927.657 165.053C929.312 164.79 930.967 164.527 932.672 164.256C932.049 161.764 931.426 159.272 930.784 156.704C932.03 155.458 933.276 154.212 934.56 152.928C935.183 150.436 935.806 147.944 936.448 145.376C933.311 144.698 930.163 144.075 927.008 143.488C925.762 140.996 924.516 138.504 923.232 135.936Z" fill="#5784BE"/>
<path d="M872.256 96.2881C874.748 97.5342 877.24 98.7802 879.808 100.064C879.808 103.179 879.808 106.294 879.808 109.504C878.562 109.504 877.316 109.504 876.032 109.504C875.759 111.373 875.487 113.242 875.206 115.168C874.855 117.037 874.505 118.906 874.144 120.832C872.275 120.832 870.406 120.832 868.48 120.832C868.48 123.324 868.48 125.816 868.48 128.384C864.704 130.272 864.704 130.272 858.922 130.862C857.092 130.667 855.262 130.473 853.376 130.272C852.753 127.78 852.13 125.288 851.488 122.72C850.242 122.097 848.996 121.474 847.712 120.832C848.302 116.584 848.302 116.584 849.6 111.392C849.95 109.64 850.301 107.887 850.662 106.082C850.934 104.719 851.207 103.356 851.488 101.952C852.734 104.444 853.98 106.936 855.264 109.504C856.51 109.504 857.756 109.504 859.04 109.504C859.512 114.696 859.512 114.696 859.04 120.832C857.794 123.324 856.548 125.816 855.264 128.384C857.756 128.384 860.248 128.384 862.816 128.384C862.816 125.269 862.816 122.154 862.816 118.944C865.898 116.348 869.051 113.834 872.256 111.392C875.071 106.501 875.071 106.501 876.032 101.952C874.786 101.952 873.54 101.952 872.256 101.952C872.256 100.083 872.256 98.2138 872.256 96.2881Z" fill="#618EC5"/>
<path d="M387.04 160.48C387.975 162.349 387.975 162.349 388.928 164.256C390.797 165.502 392.666 166.748 394.592 168.032C384.106 168.079 373.619 168.113 363.133 168.136C359.562 168.145 355.99 168.158 352.419 168.175C347.302 168.197 342.184 168.208 337.067 168.216C333.982 168.226 330.897 168.236 327.719 168.246C324.373 168.14 324.373 168.14 320.96 168.032C320.96 167.409 320.96 166.786 320.96 166.144C336.112 163.153 350.877 162.145 366.272 162.368C373.44 159.979 379.526 160.117 387.04 160.48Z" fill="#4576B0"/>
<path d="M581.504 32.0959C587.994 31.8599 587.994 31.8599 594.72 32.0959C595.343 32.719 595.966 33.342 596.608 33.9839C604.188 34.0339 611.746 33.9281 619.323 33.7443C623.709 33.6873 628.097 33.8249 632.48 33.9839C634.349 35.23 636.218 36.4761 638.144 37.7599C620.731 42.688 603.313 44.0152 585.28 43.4239C585.28 42.8009 585.28 42.1779 585.28 41.5359C588.395 41.5359 591.51 41.5359 594.72 41.5359C593.474 39.6668 592.228 37.7977 590.944 35.8719C586.091 34.6491 586.091 34.6491 581.504 33.9839C581.504 33.3609 581.504 32.7379 581.504 32.0959Z" fill="#598CC9"/>
<path d="M804.288 154.816C805.534 155.439 806.78 156.062 808.064 156.704C808.064 158.573 808.064 160.442 808.064 162.368C809.31 162.368 810.556 162.368 811.84 162.368C811.84 164.237 811.84 166.106 811.84 168.032C805.055 168.667 798.685 168.906 791.898 168.858C789.038 168.915 789.038 168.915 786.12 168.972C780.681 168.969 780.681 168.969 772.192 168.032C772.815 165.54 773.438 163.048 774.08 160.48C775.326 160.48 776.572 160.48 777.856 160.48C777.856 161.726 777.856 162.972 777.856 164.256C780.971 164.256 784.086 164.256 787.296 164.256C785.427 162.387 783.558 160.518 781.632 158.592C782.878 157.969 784.124 157.346 785.408 156.704C788.621 157.23 788.621 157.23 791.898 157.766C794.118 158.038 796.337 158.311 798.624 158.592C800.493 157.346 802.362 156.1 804.288 154.816Z" fill="#6592C8"/>
<path d="M23.836 40.8279C26.0556 41.1783 26.0556 41.1783 28.32 41.5359C27.6969 44.028 27.0739 46.5202 26.432 49.0879C22.0266 49.7172 17.6213 50.3465 13.216 50.9759C12.5929 53.468 11.9699 55.9602 11.328 58.5279C9.45886 58.5279 7.58974 58.5279 5.66398 58.5279C5.66398 60.397 5.66398 62.2661 5.66398 64.1919C3.79486 64.1919 1.92574 64.1919 -2.42796e-05 64.1919C-1.89347 51.8845 -1.89347 51.8845 -2.42796e-05 45.3119C8.15882 42.0978 15.1939 41.7219 23.836 40.8279Z" fill="#5182BC"/>
</g>
<defs>
<clipPath id="clip0_155_595">
<rect width="944" height="168.032" fill="white"/>
</clipPath>
</defs>
</svg>
