<svg width="46" height="46" viewBox="0 0 46 46" fill="none" xmlns="http://www.w3.org/2000/svg">
<path d="M30.4073 6.25464C32.8966 6.25464 35.284 7.24352 37.0442 9.00374C38.8044 10.764 39.7933 13.1513 39.7933 15.6407V30.6583C39.7933 33.1477 38.8044 35.535 37.0442 37.2953C35.284 39.0555 32.8966 40.0444 30.4073 40.0444H15.3896C12.9003 40.0444 10.5129 39.0555 8.75268 37.2953C6.99246 35.535 6.00358 33.1477 6.00358 30.6583V15.6407C6.00358 13.1513 6.99246 10.764 8.75268 9.00374C10.5129 7.24352 12.9003 6.25464 15.3896 6.25464H30.4073ZM22.8984 15.6407C20.907 15.6407 18.9971 16.4318 17.5889 17.84C16.1807 19.2481 15.3896 21.158 15.3896 23.1495C15.3896 25.141 16.1807 27.0509 17.5889 28.459C18.9971 29.8672 20.907 30.6583 22.8984 30.6583C24.8899 30.6583 26.7998 29.8672 28.208 28.459C29.6162 27.0509 30.4073 25.141 30.4073 23.1495C30.4073 21.158 29.6162 19.2481 28.208 17.84C26.7998 16.4318 24.8899 15.6407 22.8984 15.6407ZM22.8984 19.3951C23.8942 19.3951 24.8491 19.7906 25.5532 20.4947C26.2573 21.1988 26.6529 22.1538 26.6529 23.1495C26.6529 24.1452 26.2573 25.1002 25.5532 25.8043C24.8491 26.5084 23.8942 26.9039 22.8984 26.9039C21.9027 26.9039 20.9478 26.5084 20.2437 25.8043C19.5396 25.1002 19.144 24.1452 19.144 23.1495C19.144 22.1538 19.5396 21.1988 20.2437 20.4947C20.9478 19.7906 21.9027 19.3951 22.8984 19.3951ZM31.3459 12.8249C30.848 12.8249 30.3705 13.0226 30.0185 13.3747C29.6664 13.7267 29.4687 14.2042 29.4687 14.7021C29.4687 15.1999 29.6664 15.6774 30.0185 16.0295C30.3705 16.3815 30.848 16.5793 31.3459 16.5793C31.8437 16.5793 32.3212 16.3815 32.6733 16.0295C33.0253 15.6774 33.2231 15.1999 33.2231 14.7021C33.2231 14.2042 33.0253 13.7267 32.6733 13.3747C32.3212 13.0226 31.8437 12.8249 31.3459 12.8249Z" fill="#FF8C2F"/>
</svg>
