<svg width="46" height="46" viewBox="0 0 46 46" fill="none" xmlns="http://www.w3.org/2000/svg">
<path d="M22.9003 4.60388C33.2681 4.60388 41.6724 13.0081 41.6724 23.3759C41.6724 33.7437 33.2681 42.148 22.9003 42.148C19.5828 42.1537 16.3237 41.2758 13.458 39.6044L4.13575 42.148L6.67373 32.822C5.00106 29.9554 4.12243 26.6949 4.12824 23.3759C4.12824 13.0081 12.5325 4.60388 22.9003 4.60388ZM16.5028 14.5531L16.1273 14.5681C15.8846 14.5848 15.6474 14.6486 15.429 14.7558C15.2255 14.8713 15.0396 15.0154 14.8771 15.1838C14.6519 15.3959 14.5242 15.5799 14.3872 15.7582C13.6928 16.661 13.319 17.7693 13.3247 18.9082C13.3284 19.828 13.5687 20.7234 13.9441 21.5607C14.7119 23.2539 15.9753 25.0467 17.6422 26.708C18.044 27.1078 18.4382 27.5095 18.8624 27.8831C20.9338 29.7066 23.402 31.0217 26.0709 31.7239L27.1372 31.8872C27.4844 31.906 27.8317 31.8797 28.1809 31.8628C28.7275 31.834 29.2612 31.686 29.7446 31.4292C29.9902 31.3021 30.2301 31.1644 30.4636 31.0162C30.4636 31.0162 30.543 30.9624 30.6982 30.8472C30.9516 30.6595 31.1074 30.5262 31.3177 30.3066C31.4754 30.1439 31.6068 29.9549 31.7119 29.7397C31.8583 29.4337 32.0047 28.8499 32.0648 28.3637C32.1099 27.992 32.0967 27.7893 32.0911 27.6635C32.0836 27.4626 31.9165 27.2542 31.7344 27.166L30.6419 26.6761C30.6419 26.6761 29.0087 25.9646 28.0101 25.5103C27.9055 25.4648 27.7936 25.4387 27.6797 25.4334C27.5512 25.4199 27.4214 25.4343 27.2989 25.4754C27.1765 25.5165 27.0644 25.5835 26.9701 25.6718C26.9607 25.668 26.8349 25.775 25.4777 27.4194C25.3998 27.5241 25.2925 27.6032 25.1695 27.6467C25.0464 27.6901 24.9133 27.696 24.7869 27.6635C24.6645 27.6309 24.5447 27.5895 24.4283 27.5396C24.1956 27.442 24.1149 27.4044 23.9553 27.3368C22.8775 26.8674 21.8799 26.2321 20.9987 25.454C20.7622 25.2475 20.5425 25.0222 20.3173 24.8045C19.5788 24.0972 18.9352 23.2971 18.4025 22.4242L18.2918 22.2459C18.2134 22.1253 18.1492 21.9962 18.1003 21.861C18.0289 21.5851 18.2148 21.3636 18.2148 21.3636C18.2148 21.3636 18.671 20.8642 18.8831 20.5939C19.0896 20.3311 19.2642 20.0758 19.3768 19.8937C19.5983 19.5371 19.6678 19.171 19.5514 18.8875C19.0257 17.6035 18.4826 16.3264 17.9219 15.0562C17.8112 14.8046 17.4827 14.6244 17.1842 14.5887C17.0828 14.5762 16.9815 14.5662 16.8801 14.5587C16.628 14.5442 16.3753 14.5468 16.1236 14.5662L16.5028 14.5531Z" fill="#FF8C2F"/>
</svg>
